<?xml version="1.0" encoding="UTF-8"?>
<svg version="1.1" xmlns="http://www.w3.org/2000/svg" width="1453" height="232">
<path d="M0 0 C12.54 0 25.08 0 38 0 C38 75.24 38 150.48 38 228 C25.46 228 12.92 228 0 228 C-0.33 222.72 -0.66 217.44 -1 212 C-2.44375 213.52625 -3.8875 215.0525 -5.375 216.625 C-10.20917675 221.43201845 -14.87089498 225.02831272 -21 228 C-21.80953125 228.4125 -22.6190625 228.825 -23.453125 229.25 C-37.83196202 235.30424717 -57.728922 233.63873892 -72 228 C-81.66584333 223.94151742 -90.23295067 219.12660842 -98 212 C-98.75539063 211.33613281 -99.51078125 210.67226562 -100.2890625 209.98828125 C-114.42630098 196.84696507 -123.55405379 177.63879398 -124.3359375 158.3359375 C-124.69974237 134.56208029 -119.42569141 114.7969303 -103 97 C-102.38769531 96.29617187 -101.77539062 95.59234375 -101.14453125 94.8671875 C-89.19821755 81.87652654 -70.75818769 73.17370937 -53.24023438 71.78051758 C-36.77938064 71.10223257 -23.32680035 72.43673806 -10 83 C-7.03 85.97 -4.06 88.94 -1 92 C-0.67 61.64 -0.34 31.28 0 0 Z M-77.0625 125.3125 C-84.92844134 136.22332186 -86.1215319 147.92916229 -85 161 C-82.98819033 172.2559478 -76.72349546 181.41002399 -67.8125 188.4375 C-58.05860263 195.00755258 -47.03630333 197.67185429 -35.4453125 195.52734375 C-24.31079419 192.63098151 -15.39335296 186.44299425 -9.53125 176.51171875 C-3.03559387 164.06800541 -1.46835436 149.03092469 -5.5 135.4375 C-9.82067298 124.76378173 -16.9472462 116.61083933 -27 111 C-46.36709021 102.89157185 -63.87600315 110.52763989 -77.0625 125.3125 Z " fill="#5E77FF" transform="translate(582,0)"/>
<path d="M0 0 C12.54 0 25.08 0 38 0 C42.04670543 11.9418777 46.08958603 23.88503128 50.12569427 35.83049488 C51.99984904 41.37682774 53.87569323 46.92257729 55.75537109 52.46704102 C57.56832814 57.81490179 59.37688287 63.16423242 61.18235779 68.51462364 C61.87294494 70.55855284 62.56513332 72.60194172 63.25892639 74.64478493 C64.22825813 77.49982551 65.19194707 80.35671113 66.15429688 83.21411133 C66.44416977 84.06359344 66.73404266 84.91307556 67.03269958 85.78829956 C67.29353836 86.56652573 67.55437714 87.34475189 67.82312012 88.14656067 C68.16602711 89.16007205 68.16602711 89.16007205 68.51586151 90.19405842 C69 92 69 92 69 95 C69.66 95 70.32 95 71 95 C71.16815798 94.17688529 71.16815798 94.17688529 71.3397131 93.33714199 C72.50151524 87.85983527 73.99234565 82.60136847 75.78149414 77.29907227 C76.05327988 76.48167068 76.32506561 75.6642691 76.60508728 74.82209778 C77.49410515 72.15206415 78.38950571 69.48422153 79.28515625 66.81640625 C79.90801975 64.95087694 80.53052698 63.08522864 81.1526947 61.21946716 C82.4520007 57.32613396 83.75423372 53.43379732 85.05883789 49.54223633 C86.73313217 44.54776426 88.40214309 39.55154738 90.06925297 34.55467319 C91.35212736 30.71019842 92.63669941 26.86629284 93.92190361 23.02259636 C94.53819162 21.17943605 95.15419612 19.33618091 95.76991463 17.49283028 C96.6276705 14.9264122 97.48745451 12.36068326 98.34790039 9.79516602 C98.6029837 9.03103394 98.85806702 8.26690186 99.12088013 7.47961426 C100.88529564 2.22940871 100.88529564 2.22940871 102 0 C114.54 0 127.08 0 140 0 C150.84390738 31.60883639 161.46870255 63.28582009 172 95 C174.00349336 89.16786119 176.00274304 83.33427732 178 77.5 C178.46002914 76.15692276 178.46002914 76.15692276 178.92935181 74.78671265 C182.80109961 63.47532699 186.62783755 52.15020632 190.38671875 40.80078125 C190.74694122 39.71421234 191.1071637 38.62764343 191.478302 37.50814819 C193.24368811 32.18062779 195.00354123 26.85136393 196.75585938 21.51953125 C197.40349044 19.56114652 198.05126957 17.60281075 198.69921875 15.64453125 C198.9893132 14.7555867 199.27940765 13.86664215 199.57829285 12.95075989 C199.853694 12.12114243 200.12909515 11.29152496 200.4128418 10.43676758 C200.64819138 9.7210408 200.88354095 9.00531403 201.12602234 8.26789856 C202.220438 5.42798192 203.6389069 2.7221862 205 0 C217.21 0 229.42 0 242 0 C232.26944341 30.1878365 222.29841888 60.29284017 212.26770198 90.38200426 C210.50488559 95.67081072 208.7454827 100.96074856 206.98671466 106.25090241 C205.0639331 112.03383986 203.13787124 117.81567959 201.21053123 123.5970993 C200.3981722 126.03535663 199.58678634 128.47393841 198.77639198 130.91284943 C197.65754187 134.27911103 196.53496095 137.6441051 195.41137695 141.00878906 C195.0784967 142.01304932 194.74561646 143.01730957 194.40264893 144.05200195 C193.94699303 145.41267792 193.94699303 145.41267792 193.48213196 146.80084229 C193.21841451 147.59253941 192.95469706 148.38423653 192.68298817 149.19992447 C192 151 192 151 191 152 C188.1883662 152.08861992 185.40141745 152.11522355 182.58984375 152.09765625 C181.74780899 152.0962413 180.90577423 152.09482635 180.03822327 152.09336853 C177.33794665 152.08775263 174.63775172 152.07519748 171.9375 152.0625 C170.11132932 152.05748705 168.28515734 152.05292379 166.45898438 152.04882812 C161.97262458 152.03777804 157.48632616 152.02050279 153 152 C148.95281992 139.92788227 144.91046316 127.8541615 140.87430573 115.77835369 C139.00013033 110.17150249 137.12427984 104.56522327 135.24462891 98.96020508 C133.43170609 93.55396389 131.62314732 88.14628115 129.81764221 82.73755836 C129.12704128 80.67131094 128.43485284 78.60559342 127.74107361 76.540411 C126.77177841 73.65421045 125.80807654 70.76620014 124.84570312 67.87768555 C124.55583023 67.01885269 124.26595734 66.16001984 123.96730042 65.27516174 C123.70646164 64.48852142 123.44562286 63.7018811 123.17687988 62.8914032 C122.94827522 62.2083546 122.71967056 61.525306 122.48413849 60.82155895 C122 59 122 59 122 56 C121.34 56 120.68 56 120 56 C119.66802612 57.72150269 119.66802612 57.72150269 119.3293457 59.4777832 C117.66872164 66.92446737 115.12735016 74.12126733 112.73046875 81.35546875 C112.20689147 82.94563688 111.68364832 84.53591506 111.16072083 86.126297 C110.06642843 89.45137338 108.9692914 92.77549199 107.86987305 96.09887695 C106.47396997 100.31869105 105.0833454 104.54021948 103.69466686 108.76241589 C102.61424615 112.04640171 101.53188326 115.32974473 100.44887733 118.6128788 C99.93628285 120.1669833 99.42405241 121.72120792 98.91222191 123.27556419 C98.18961557 125.46840586 97.4646286 127.66044721 96.73901367 129.85229492 C96.32979172 131.09089767 95.92056976 132.32950043 95.49894714 133.6056366 C93.39954213 139.76032231 91.18716064 145.8759502 89 152 C76.46 152 63.92 152 51 152 C46.49991492 140.74978729 46.49991492 140.74978729 44.73468018 135.45127869 C44.33371628 134.25258148 43.93275238 133.05388428 43.51963806 131.81886292 C43.09018176 130.52501339 42.66078616 129.23114371 42.23144531 127.93725586 C41.76805968 126.54817415 41.30441395 125.15917918 40.8405304 123.77026367 C39.59219979 120.03008113 38.34758486 116.28867212 37.1037569 112.54699016 C35.79916385 108.62437946 34.49137862 104.70283315 33.184021 100.78114319 C30.99319172 94.20772189 28.8046777 87.63353349 26.61767578 81.05883789 C24.08685436 73.45059064 21.55286342 65.84340495 19.01708722 58.23680776 C16.57552942 50.9127435 14.13568222 43.58811069 11.69680023 36.26315498 C10.6589873 33.14618025 9.62066208 30.02937687 8.58194733 26.91270256 C7.36244603 23.25319793 6.14446813 19.59318979 4.92769432 15.9327774 C4.47992236 14.58652976 4.0316359 13.24045313 3.58281136 11.89455605 C2.97294875 10.06545549 2.36510592 8.23568186 1.75738525 6.40586853 C1.41598637 5.37999602 1.07458748 4.35412352 0.72284317 3.29716396 C0 1 0 1 0 0 Z " fill="#5D76FF" transform="translate(1211,76)"/>
<path d="M0 0 C2.14638636 1.89782205 4.26191212 3.83044492 6.37109375 5.76953125 C6.04109375 0.48953125 5.71109375 -4.79046875 5.37109375 -10.23046875 C17.91109375 -10.23046875 30.45109375 -10.23046875 43.37109375 -10.23046875 C43.37109375 39.92953125 43.37109375 90.08953125 43.37109375 141.76953125 C30.83109375 141.76953125 18.29109375 141.76953125 5.37109375 141.76953125 C4.71109375 136.81953125 4.05109375 131.86953125 3.37109375 126.76953125 C2.64921875 127.73890625 1.92734375 128.70828125 1.18359375 129.70703125 C-1.79694795 133.1667144 -5.1718766 135.88328854 -8.87890625 138.51953125 C-9.9153125 139.256875 -10.95171875 139.99421875 -12.01953125 140.75390625 C-19.69911417 145.43135047 -27.93356387 146.30270143 -36.75390625 146.20703125 C-37.75945557 146.19800781 -38.76500488 146.18898437 -39.80102539 146.1796875 C-58.91346557 145.74028599 -76.51393101 138.78214849 -90.62890625 125.76953125 C-91.48097656 124.99738281 -92.33304687 124.22523438 -93.2109375 123.4296875 C-99.15293732 117.79057823 -103.61744335 111.89759225 -107.62890625 104.76953125 C-108.09039062 103.96902344 -108.551875 103.16851562 -109.02734375 102.34375 C-118.5721114 84.67146808 -120.52338592 62.28813257 -115.6015625 42.8984375 C-108.81223379 21.05806684 -95.94422892 4.2586692 -75.68969727 -6.55200195 C-68.54756394 -10.20302734 -61.57417029 -12.84452796 -53.62890625 -14.23046875 C-52.92636719 -14.359375 -52.22382813 -14.48828125 -51.5 -14.62109375 C-31.97331646 -17.61913001 -14.9292689 -12.66658625 0 0 Z M-68.73828125 33.9453125 C-77.2377275 44.46065306 -80.6838991 55.27232119 -79.62890625 68.76953125 C-77.62202691 82.09251175 -70.76940938 92.82069873 -60.57421875 101.5234375 C-51.66231204 108.03598471 -40.59590157 111.1077658 -29.62890625 109.76953125 C-19.61692396 107.83268944 -10.93234058 102.85918468 -4.62890625 94.76953125 C2.71686808 82.81365028 4.97792565 71.08602012 2.24609375 57.39453125 C-0.83759235 45.08847231 -7.70571875 34.28303017 -18.50390625 27.39453125 C-35.29782213 18.1783579 -55.04024343 19.81604016 -68.73828125 33.9453125 Z " fill="#5D76FF" transform="translate(391.62890625,86.23046875)"/>
<path d="M0 0 C15.65261931 13.54967198 24.3377331 30.73554049 28.37109375 50.90234375 C28.37109375 59.48234375 28.37109375 68.06234375 28.37109375 76.90234375 C-8.25890625 76.90234375 -44.88890625 76.90234375 -82.62890625 76.90234375 C-77.56043569 89.06667311 -73.42556073 97.04649692 -61.671875 103.0625 C-53.72420988 106.32970459 -43.13885217 106.40077816 -35.01953125 103.703125 C-27.56770593 100.02355454 -22.01892724 96.05645203 -17.62890625 88.90234375 C-9.2467941 89.5614024 -1.21934246 91.50632794 6.93359375 93.46484375 C8.33777481 93.79801453 9.74207095 94.13070069 11.14648438 94.46289062 C14.556032 95.27046035 17.96397678 96.08457196 21.37109375 96.90234375 C18.48900838 112.6397036 4.07249495 125.11546787 -8.3984375 133.83984375 C-25.14807247 144.47162299 -44.66043652 146.49187511 -64.03515625 143.2734375 C-79.13375086 139.73668687 -90.95863964 131.85589178 -101.62890625 120.90234375 C-102.75425781 119.773125 -102.75425781 119.773125 -103.90234375 118.62109375 C-119.78252519 101.82825821 -124.28871241 80.64269432 -123.87890625 58.296875 C-123.48704555 47.05243212 -120.46881313 37.03849158 -115.62890625 26.90234375 C-114.98308594 25.53142578 -114.98308594 25.53142578 -114.32421875 24.1328125 C-104.88730319 5.49890297 -88.81849398 -7.44998891 -69.21484375 -14.0625 C-44.69269818 -21.14133287 -19.87335345 -15.85734146 0 0 Z M-76.62890625 30.90234375 C-80.44107321 36.26192257 -83.62890625 41.17872339 -83.62890625 47.90234375 C-59.53890625 47.90234375 -35.44890625 47.90234375 -10.62890625 47.90234375 C-14.55401946 34.81863304 -19.68879825 26.6838614 -31.62890625 19.90234375 C-32.23992187 19.54269531 -32.8509375 19.18304688 -33.48046875 18.8125 C-48.29862163 11.72981459 -67.10126749 18.40400864 -76.62890625 30.90234375 Z " fill="#5D76FF" transform="translate(768.62890625,88.09765625)"/>
<path d="M0 0 C12.54 0 25.08 0 38 0 C38 58.41 38 116.82 38 177 C97.73 177 157.46 177 219 177 C219 188.88 219 200.76 219 213 C146.73 213 74.46 213 0 213 C0 142.71 0 72.42 0 0 Z " fill="#5E76FF" transform="translate(969,15)"/>
<path d="M0 0 C41.91 0 83.82 0 127 0 C127 12.54 127 25.08 127 38 C97.63 38 68.26 38 38 38 C38 51.86 38 65.72 38 80 C62.42 80 86.84 80 112 80 C112 92.54 112 105.08 112 118 C87.58 118 63.16 118 38 118 C38 149.35 38 180.7 38 213 C25.46 213 12.92 213 0 213 C0 142.71 0 72.42 0 0 Z " fill="#5D76FF" transform="translate(821,15)"/>
<path d="M0 0 C55.11 0 110.22 0 167 0 C167 12.54 167 25.08 167 38 C145.55 38 124.1 38 102 38 C102 95.75 102 153.5 102 213 C89.79 213 77.58 213 65 213 C65 155.25 65 97.5 65 38 C43.55 38 22.1 38 0 38 C0 25.46 0 12.92 0 0 Z " fill="#5D77FF" transform="translate(0,15)"/>
<path d="M0 0 C12.93369184 10.06547643 23.1248554 24.92509768 26.5625 41.17578125 C29.00447069 63.58445346 26.25981782 84.05032581 12.08129883 102.12475586 C0.91321863 115.52923765 -14.61321234 125.24599138 -32.0390625 127.83203125 C-53.81300856 129.57308715 -72.18858017 126.24685017 -89.7890625 112.58203125 C-102.37513008 101.71307594 -113.19445394 85.75902741 -115.0390625 68.83203125 C-116.38462405 45.77976918 -112.96021915 26.03655972 -97.37768555 8.28686523 C-71.5407253 -19.64059188 -30.25736507 -21.58462418 0 0 Z M-71.25 31.58984375 C-78.56397978 40.75627256 -80.96709141 51.31268827 -80.0390625 62.83203125 C-78.37482164 72.42589032 -73.32479847 80.43479967 -66.0390625 86.83203125 C-65.55050781 87.26257813 -65.06195312 87.693125 -64.55859375 88.13671875 C-58.45038213 93.04069863 -50.10836251 95.55084586 -42.265625 95.1796875 C-32.23026949 93.61276357 -23.61506965 90.42492888 -17.10546875 82.46875 C-10.09123603 72.8588137 -6.97084036 63.79311009 -8.0390625 51.83203125 C-10.5335575 39.70165842 -15.96692644 31.04734326 -26.0390625 23.83203125 C-42.00087796 15.02367155 -58.87824381 18.52802944 -71.25 31.58984375 Z " fill="#5D76FF" transform="translate(1161.0390625,28.16796875)"/>
<path d="M0 0 C-0.58843589 9.15175174 -1.5982493 18.17894137 -2.9375 27.25 C-3.19176758 29.08111328 -3.19176758 29.08111328 -3.45117188 30.94921875 C-3.70543945 32.68365234 -3.70543945 32.68365234 -3.96484375 34.453125 C-4.1155835 35.49629883 -4.26632324 36.53947266 -4.42163086 37.61425781 C-4.61249268 38.40155273 -4.80335449 39.18884766 -5 40 C-5.99 40.495 -5.99 40.495 -7 41 C-9.0234375 40.2578125 -9.0234375 40.2578125 -11.375 39.125 C-20.20134526 34.90370444 -29.38320398 34.77794852 -38.65625 37.9765625 C-47.87599863 42.0025194 -53.39728264 49.44077091 -57.06640625 58.6875 C-59.41488001 66.13000622 -60.14490775 73.53758736 -60.20532227 81.32202148 C-60.21522186 82.12283646 -60.22512146 82.92365143 -60.23532104 83.74873352 C-60.26668938 86.37282442 -60.29159499 88.99693337 -60.31640625 91.62109375 C-60.33699713 93.44955391 -60.35799414 95.27800953 -60.37937927 97.10646057 C-60.43437966 101.90184848 -60.48388544 106.69727777 -60.53222656 111.49273682 C-60.59147178 117.25564821 -60.65757767 123.01848453 -60.72252655 128.78133392 C-60.82025855 137.52084315 -60.90930424 146.26040216 -61 155 C-73.54 155 -86.08 155 -99 155 C-99 104.84 -99 54.68 -99 3 C-86.46 3 -73.92 3 -61 3 C-60.505 10.425 -60.505 10.425 -60 18 C-58.68 16.35 -57.36 14.7 -56 13 C-40.3062196 -1.18756618 -20.53449217 -4.59418906 0 0 Z " fill="#5D76FF" transform="translate(270,73)"/>
</svg>
