<?xml version="1.0" encoding="UTF-8"?>
<svg version="1.1" xmlns="http://www.w3.org/2000/svg" width="400" height="152">
<path d="M0 0 C132 0 264 0 400 0 C400 50.16 400 100.32 400 152 C268 152 136 152 0 152 C0 101.84 0 51.68 0 0 Z " fill="#FBFBFB" transform="translate(0,0)"/>
<path d="M0 0 C2.99157798 0.68154902 4.80726172 2.31116797 6.9375 4.44140625 C7.2675 4.11140625 7.5975 3.78140625 7.9375 3.44140625 C10.06134328 3.36827115 12.18750272 3.35779701 14.3125 3.37890625 C15.47523437 3.38792969 16.63796875 3.39695313 17.8359375 3.40625 C18.85945313 3.41785156 19.88296875 3.42945313 20.9375 3.44140625 C24.00453578 3.48750536 24.00453578 3.48750536 27.3125 3.12890625 C30.9375 3.44140625 30.9375 3.44140625 33.75 5.50390625 C36.18090891 8.76826964 36.90710735 11.54063406 37.9375 15.44140625 C41.16541555 17.59334995 42.22150809 17.64227068 45.9375 17.44140625 C46.2675 15.13140625 46.5975 12.82140625 46.9375 10.44140625 C49.51898508 10.79747316 50.75795747 11.27468818 52.6875 13.06640625 C54.37504802 16.27274748 54.14326047 18.87489139 53.9375 22.44140625 C52.2875 22.11140625 50.6375 21.78140625 48.9375 21.44140625 C49.07857747 22.90020734 49.22552415 24.35844176 49.375 25.81640625 C49.45621094 26.62851562 49.53742188 27.440625 49.62109375 28.27734375 C49.82840114 30.4841343 49.82840114 30.4841343 50.9375 32.44140625 C52.58954456 33.14352519 54.25673769 33.81112038 55.9375 34.44140625 C57.52644072 36.03034697 57.10748411 37.68942049 57.125 39.87890625 C57.13917969 40.68199219 57.15335937 41.48507813 57.16796875 42.3125 C56.9375 44.44140625 56.9375 44.44140625 54.9375 46.44140625 C52.8125 46.06640625 52.8125 46.06640625 50.9375 45.44140625 C50.64875 44.36890625 50.36 43.29640625 50.0625 42.19140625 C49.20929891 39.34740261 48.3738497 37.00631642 46.9375 34.44140625 C44.02097826 34.27459516 44.02097826 34.27459516 40.9375 34.44140625 C39.9475 35.43140625 39.9475 35.43140625 38.9375 36.44140625 C39.26076553 40.03819691 39.26076553 40.03819691 39.9375 43.44140625 C40.50339844 43.64636719 41.06929688 43.85132813 41.65234375 44.0625 C42.38582031 44.33191406 43.11929688 44.60132813 43.875 44.87890625 C44.60589844 45.14574219 45.33679688 45.41257813 46.08984375 45.6875 C47.9375 46.44140625 47.9375 46.44140625 48.9375 47.44140625 C49.39502733 54.41869809 49.39502733 54.41869809 47.875 57.81640625 C45.9375 59.44140625 45.9375 59.44140625 42.4375 60.06640625 C38.80990407 61.01625313 38.80990407 61.01625313 37.95703125 63.6796875 C37.49344594 65.44950766 37.08486229 67.23484906 36.73828125 69.03125 C35.74363455 72.02489397 34.65153759 72.90127771 31.9375 74.44140625 C28.82560534 74.69035782 26.74665474 74.84598362 23.9375 73.44140625 C23.2775 74.10140625 22.6175 74.76140625 21.9375 75.44140625 C21.38578125 75.11398438 20.8340625 74.7865625 20.265625 74.44921875 C17.54969077 73.2735291 15.63198241 73.23891987 12.6875 73.31640625 C11.79546875 73.33445312 10.9034375 73.3525 9.984375 73.37109375 C9.30890625 73.39429687 8.6334375 73.4175 7.9375 73.44140625 C7.43346232 72.15130982 6.93440074 70.85926836 6.4375 69.56640625 C6.1590625 68.84710938 5.880625 68.1278125 5.59375 67.38671875 C4.9375 65.44140625 4.9375 65.44140625 4.9375 63.44140625 C1.23321309 62.20664395 -2.21241878 61.86239013 -6.0625 62.44140625 C-8.91170053 64.31909767 -8.91170053 64.31909767 -11.0625 66.44140625 C-11.7225 66.44140625 -12.3825 66.44140625 -13.0625 66.44140625 C-13.7225 65.45140625 -14.3825 64.46140625 -15.0625 63.44140625 C-17.15313583 62.79280361 -17.15313583 62.79280361 -19.5 62.50390625 C-23.81442475 61.63685947 -23.81442475 61.63685947 -26.125 59.81640625 C-27.5147273 56.29576375 -27.72055021 53.16780687 -27.0625 49.44140625 C-25.625 47.00390625 -25.625 47.00390625 -23.0625 45.44140625 C-20.72347947 45.03010424 -18.45839783 44.81730881 -16.0859375 44.71484375 C-13.83597359 44.61890865 -13.83597359 44.61890865 -12.0625 42.44140625 C-11.60243654 40.23889633 -11.60243654 40.23889633 -11.4375 37.81640625 C-11.36273438 36.99914062 -11.28796875 36.181875 -11.2109375 35.33984375 C-11.13746094 34.40011719 -11.13746094 34.40011719 -11.0625 33.44140625 C-11.88234375 33.33183594 -12.7021875 33.22226563 -13.546875 33.109375 C-15.16335937 32.87154297 -15.16335937 32.87154297 -16.8125 32.62890625 C-17.87984375 32.47808594 -18.9471875 32.32726562 -20.046875 32.171875 C-23.18837311 31.41091626 -24.82202718 30.75638411 -27.0625 28.44140625 C-27.89610038 25.37145726 -27.66650146 22.54847685 -27.0625 19.44140625 C-25.1875 16.37890625 -25.1875 16.37890625 -22.0625 14.44140625 C-18.68496766 14.04950937 -15.44477434 14.14586772 -12.0625 14.44140625 C-12.04123047 13.55388672 -12.04123047 13.55388672 -12.01953125 12.6484375 C-11.76468908 8.42632262 -11.40692874 5.95283075 -9 2.37890625 C-5.69159324 0.19676562 -3.87965842 -0.22778298 0 0 Z " fill="#FCFBF8" transform="translate(46.0625,35.55859375)"/>
<path d="M0 0 C3.6875 0.4375 3.6875 0.4375 6.5 2.5 C8.93090891 5.76436339 9.65710735 8.53672781 10.6875 12.4375 C13.91541555 14.5894437 14.97150809 14.63836443 18.6875 14.4375 C19.0175 12.1275 19.3475 9.8175 19.6875 7.4375 C22.26898508 7.79356691 23.50795747 8.27078193 25.4375 10.0625 C27.12504802 13.26884123 26.89326047 15.87098514 26.6875 19.4375 C25.0375 19.1075 23.3875 18.7775 21.6875 18.4375 C21.82857747 19.89630109 21.97552415 21.35453551 22.125 22.8125 C22.20621094 23.62460937 22.28742188 24.43671875 22.37109375 25.2734375 C22.57840114 27.48022805 22.57840114 27.48022805 23.6875 29.4375 C25.33954456 30.13961894 27.00673769 30.80721413 28.6875 31.4375 C30.27644072 33.02644072 29.85748411 34.68551424 29.875 36.875 C29.88917969 37.67808594 29.90335938 38.48117188 29.91796875 39.30859375 C29.6875 41.4375 29.6875 41.4375 27.6875 43.4375 C25.5625 43.0625 25.5625 43.0625 23.6875 42.4375 C23.39875 41.365 23.11 40.2925 22.8125 39.1875 C21.95929891 36.34349636 21.1238497 34.00241017 19.6875 31.4375 C16.77097826 31.27068891 16.77097826 31.27068891 13.6875 31.4375 C13.0275 32.0975 12.3675 32.7575 11.6875 33.4375 C12.01076553 37.03429066 12.01076553 37.03429066 12.6875 40.4375 C13.25339844 40.64246094 13.81929687 40.84742188 14.40234375 41.05859375 C15.13582031 41.32800781 15.86929688 41.59742188 16.625 41.875 C17.35589844 42.14183594 18.08679688 42.40867188 18.83984375 42.68359375 C20.6875 43.4375 20.6875 43.4375 21.6875 44.4375 C22.14502733 51.41479184 22.14502733 51.41479184 20.625 54.8125 C18.6875 56.4375 18.6875 56.4375 15.1875 57.0625 C11.55990407 58.01234688 11.55990407 58.01234688 10.70703125 60.67578125 C10.24344594 62.44560141 9.83486229 64.23094281 9.48828125 66.02734375 C8.49394781 69.02004489 7.394022 69.88876796 4.6875 71.4375 C1.54979327 71.82170899 -0.41058875 71.94858304 -3.1875 70.375 C-4.98690223 67.2760295 -4.73577427 64.94462967 -4.3125 61.4375 C-2.9375 58.625 -2.9375 58.625 -0.3125 56.4375 C2.98571703 55.44493312 6.27450601 54.87389427 9.6875 54.4375 C10.72964691 49.82242226 10.72964691 49.82242226 9.6875 45.4375 C6.90598464 45.12038913 4.14925589 45.05776204 1.3515625 44.9765625 C-1.3125 44.4375 -1.3125 44.4375 -3.13671875 42.61328125 C-4.88697647 39.37443225 -4.75722323 37.0588177 -4.3125 33.4375 C-1.81088891 28.85121301 1.21756427 27.53551289 5.98046875 26.015625 C7.69834683 25.57429224 7.69834683 25.57429224 8.6875 24.4375 C8.83386054 21.07120749 8.75943479 18.65330438 7.6875 15.4375 C5.70953492 14.77831717 5.70953492 14.77831717 3.375 14.5 C0.36430326 13.90553122 -1.27119617 13.46470008 -3.875 11.75 C-5.88644143 8.51420291 -5.72719595 6.16976352 -5.3125 2.4375 C-3.3125 0.4375 -3.3125 0.4375 0 0 Z " fill="#C82229" transform="translate(73.3125,38.5625)"/>
<path d="M0 0 C3.3 0 6.6 0 10 0 C10 12.87 10 25.74 10 39 C7.03 39 4.06 39 1 39 C0.67 38.01 0.34 37.02 0 36 C-0.495 36.495 -0.99 36.99 -1.5 37.5 C-4.95760733 39.5745644 -8.11585067 39.68862409 -12 39 C-16.30375948 36.51338341 -18.33281294 33.65057443 -20 29 C-20.69928486 24.32673043 -20.51458704 20.3590942 -18.3125 16.125 C-15.92155983 12.89399977 -14.76967478 11.34032881 -11 10 C-2.94492255 10.05507745 -2.94492255 10.05507745 -1 12 C-0.67 8.04 -0.34 4.08 0 0 Z " fill="#111111" transform="translate(216,22)"/>
<path d="M0 0 C86.79 0 173.58 0 263 0 C263 0.99 263 1.98 263 3 C176.21 3 89.42 3 0 3 C0 2.01 0 1.02 0 0 Z " fill="#FDC832" transform="translate(118,106)"/>
<path d="M0 0 C2.39972466 1.7997935 2.84281507 3.10055288 3.3515625 6.01171875 C3.60191525 8.00381131 3.80346363 10.0018802 4 12 C5.74959329 13.74959329 8.37284503 13.16882885 10.75 13.25 C14.9029589 13.57630391 16.70032336 13.80405758 20.25 16.125 C22.4973203 19.8170262 22.75933191 21.74774133 22 26 C20.3125 28.875 20.3125 28.875 17 31 C12.66760007 31.70807989 8.38552667 31.92936926 4 32 C3.97873047 32.88751953 3.97873047 32.88751953 3.95703125 33.79296875 C3.70218908 38.01508363 3.34442874 40.4885755 0.9375 44.0625 C-3.15625742 46.76263787 -5.15948699 46.70265511 -10 46 C-12.36110026 44.22917481 -12.84291198 42.9703665 -13.30859375 40.09375 C-13.52061973 36.64993409 -13.33466807 34.56748063 -11.5625 31.5625 C-8.34730055 29.60201253 -5.74046256 29.43397347 -2.0234375 29.2734375 C0.22652641 29.1775024 0.22652641 29.1775024 2 27 C2.46006346 24.79749008 2.46006346 24.79749008 2.625 22.375 C2.69976562 21.55773437 2.77453125 20.74046875 2.8515625 19.8984375 C2.90054688 19.27195312 2.94953125 18.64546875 3 18 C1.77023438 17.83564453 1.77023438 17.83564453 0.515625 17.66796875 C-1.10085937 17.43013672 -1.10085937 17.43013672 -2.75 17.1875 C-3.81734375 17.03667969 -4.8846875 16.88585937 -5.984375 16.73046875 C-9.12662823 15.9693271 -10.76379766 15.321391 -13 13 C-14.03036485 8.88611682 -13.62592092 5.11577208 -11.5625 1.4375 C-7.74800227 -0.70234019 -4.27027305 -0.77788655 0 0 Z " fill="#FCC523" transform="translate(32,51)"/>
<path d="M0 0 C3.3 0 6.6 0 10 0 C10.99 4.95 11.98 9.9 13 15 C13.45375 13.63875 13.9075 12.2775 14.375 10.875 C15.58333333 7.25 16.79166667 3.625 18 0 C20.97 0 23.94 0 27 0 C27.50806447 1.72681437 28.00610467 3.45657979 28.5 5.1875 C28.7784375 6.15042969 29.056875 7.11335938 29.34375 8.10546875 C29.96677608 10.85345876 30.12302812 13.19598416 30 16 C30.66 16 31.32 16 32 16 C32.04898438 15.43152344 32.09796875 14.86304688 32.1484375 14.27734375 C32.63143081 9.28918871 33.47638163 4.77400422 35 0 C37.97 0 40.94 0 44 0 C37.43333333 26.56666667 37.43333333 26.56666667 36 28 C32.99668982 28.14193337 30.00782866 28.04236378 27 28 C24.525 20.08 24.525 20.08 22 12 C20.72487387 16.89050364 20.72487387 16.89050364 19.45727539 21.78295898 C18.11111111 26.88888889 18.11111111 26.88888889 17 28 C15.48071962 28.07179964 13.95832518 28.08392007 12.4375 28.0625 C11.61121094 28.05347656 10.78492188 28.04445313 9.93359375 28.03515625 C8.97646484 28.01775391 8.97646484 28.01775391 8 28 C5.06032543 18.72751586 2.44760472 9.41286282 0 0 Z " fill="#0C0C0C" transform="translate(336,33)"/>
<path d="M0 0 C5.13308791 2.61320839 8.1797908 5.53937241 10 11 C10.39614654 16.24894167 9.86557317 19.55342094 7 24 C1.82591056 28.66930023 -1.39385607 29.35792578 -8.234375 29.27734375 C-12.13698363 28.88598046 -14.17241898 27.68620197 -17 25 C-20.30154375 20.26778729 -20.89608574 15.60808715 -20 10 C-15.77831743 1.39426246 -9.19896882 -1.49576729 0 0 Z " fill="#0C0C0C" transform="translate(325,32)"/>
<path d="M0 0 C4.51000412 3.74000342 4.51000412 3.74000342 4.88134766 6.46337891 C4.928479 7.89302979 4.928479 7.89302979 4.9765625 9.3515625 C5.01523438 10.3828125 5.05390625 11.4140625 5.09375 12.4765625 C5.1246875 13.55679688 5.155625 14.63703125 5.1875 15.75 C5.22617188 16.83796875 5.26484375 17.9259375 5.3046875 19.046875 C5.39916247 21.73941165 5.48472431 24.43193757 5.5625 27.125 C2.5925 27.125 -0.3775 27.125 -3.4375 27.125 C-3.4375 26.135 -3.4375 25.145 -3.4375 24.125 C-4.0975 24.62 -4.7575 25.115 -5.4375 25.625 C-9.25020704 27.53135352 -12.2517334 28.01109978 -16.4375 27.125 C-20.17945779 24.55240402 -21.24859157 23.08671566 -22.125 18.625 C-21.42068244 15.03938331 -21.21045413 14.48641782 -18.625 12.25 C-14.9518021 9.8012014 -12.56457539 8.99176926 -8.25 9.0625 C-6.3628125 9.0934375 -6.3628125 9.0934375 -4.4375 9.125 C-4.7675 8.135 -5.0975 7.145 -5.4375 6.125 C-7.04157328 6.09791433 -8.6457785 6.07856517 -10.25 6.0625 C-11.14332031 6.05089844 -12.03664062 6.03929687 -12.95703125 6.02734375 C-15.57163791 6.01490033 -15.57163791 6.01490033 -18.4375 7.125 C-18.7675 4.815 -19.0975 2.505 -19.4375 0.125 C-12.70725053 -2.16614876 -6.47273047 -3.53058026 0 0 Z " fill="#0C0C0C" transform="translate(187.4375,33.875)"/>
<path d="M0 0 C4.2487207 1.60329083 6.61777272 3.15595144 9 7 C9.66306772 10.34064654 9.77559069 13.58897849 10 17 C4.06 17 -1.88 17 -8 17 C-7.34 18.32 -6.68 19.64 -6 21 C-4.58344207 21.0272415 -3.16672955 21.04650467 -1.75 21.0625 C-0.96109375 21.07410156 -0.1721875 21.08570312 0.640625 21.09765625 C2.90691002 21.00385306 4.8288895 20.63241063 7 20 C7.66 21.98 8.32 23.96 9 26 C3.00561458 29.19700556 -2.24931313 29.73263268 -9 29 C-12.88925391 27.67599867 -14.34048432 25.77372752 -16.3125 22.3125 C-18.28680044 17.92068882 -18.61769392 14.78712786 -18 10 C-14.18413583 2.36827166 -8.43051329 -1.39667186 0 0 Z " fill="#0F0F0F" transform="translate(248,32)"/>
<path d="M0 0 C7.92 0 15.84 0 24 0 C24 2.31 24 4.62 24 7 C19.05 7 14.1 7 9 7 C9 9.64 9 12.28 9 15 C13.62 15 18.24 15 23 15 C23 17.31 23 19.62 23 22 C18.38 22 13.76 22 9 22 C9 26.62 9 31.24 9 36 C6.03 36 3.06 36 0 36 C0 24.12 0 12.24 0 0 Z " fill="#040404" transform="translate(263,24)"/>
<path d="M0 0 C3.72569693 1.051608 5.06356223 3.32604445 6.9375 6.546875 C7.25 10.421875 7.25 10.421875 6.9375 13.546875 C8.14986328 13.67642578 8.14986328 13.67642578 9.38671875 13.80859375 C14.27776301 14.45168642 18.01507771 14.94375273 22.1875 17.671875 C24.64492132 21.70906717 24.54159303 23.86515403 23.9375 28.546875 C22.36527476 30.69037463 21.46853783 31.43649073 18.8515625 31.98046875 C15.07496587 31.98691345 12.46030115 31.79159043 9 30.171875 C5.9849271 26.3345095 5.54639318 22.30896492 4.9375 17.546875 C4.20144531 17.54429688 3.46539062 17.54171875 2.70703125 17.5390625 C-5.03208906 17.23236024 -5.03208906 17.23236024 -7.90625 15.3203125 C-9.89705419 13.06329612 -10.97757772 10.89505637 -11.6875 7.984375 C-10.14358179 1.96309397 -5.87226085 -0.40038142 0 0 Z " fill="#FDC422" transform="translate(46.0625,35.453125)"/>
<path d="M0 0 C9.57 0 19.14 0 29 0 C29 2.64 29 5.28 29 8 C25.7 8 22.4 8 19 8 C19 17.57 19 27.14 19 37 C16.03 37 13.06 37 10 37 C10 27.43 10 17.86 10 8 C6.7 8 3.4 8 0 8 C0 5.36 0 2.72 0 0 Z " fill="#0B0B0B" transform="translate(119,23)"/>
<path d="M0 0 C0.33 0 0.66 0 1 0 C1.4640625 1.7015625 1.4640625 1.7015625 1.9375 3.4375 C2.62924531 6.78775099 2.62924531 6.78775099 4 8 C6.80927959 8.24350096 9.61734162 8.38391001 12.43359375 8.5234375 C13.28050781 8.68070313 14.12742187 8.83796875 15 9 C17 12 17 12 16.8125 15.5625 C16 19 16 19 13 21 C11.0625 21.2734375 11.0625 21.2734375 9 21.375 C5.6954078 21.71654974 5.6954078 21.71654974 3.0625 23.75 C1.91825788 26.17310095 1.36789751 28.35113796 1 31 C0.67 30.01 0.34 29.02 0 28 C-1.93364887 27.11964735 -1.93364887 27.11964735 -4.25 26.5625 C-8.23799171 25.355942 -10.95964334 23.94534552 -14 21 C-15.58939347 17.82121306 -15.41576711 15.5043228 -15 12 C-11.72194414 8.32218123 -10.05375379 7.24587589 -5.25 6.125 C-2 6 -2 6 0 7 C0 4.69 0 2.38 0 0 Z " fill="#FAF5F4" transform="translate(68,74)"/>
<path d="M0 0 C4.17495539 2.74668118 4.90927827 6.27353919 6 11 C6.68707031 11.03738281 7.37414062 11.07476562 8.08203125 11.11328125 C8.98308594 11.17902344 9.88414063 11.24476562 10.8125 11.3125 C12.15248047 11.39951172 12.15248047 11.39951172 13.51953125 11.48828125 C16.35298248 12.07282001 17.35146914 12.64260087 19 15 C18.93404021 18.69374831 18.78744042 21.06112873 16.375 23.9375 C13.00247755 25.44626005 10.64552028 25.5302575 7 25 C5.13915334 22.68998345 4.22115484 20.64240215 3.26171875 17.85546875 C2.84535156 17.24316406 2.42898437 16.63085938 2 16 C-0.52277417 15.48269083 -0.52277417 15.48269083 -3.375 15.5625 C-8.68560687 15.26321285 -8.68560687 15.26321285 -11.6875 12.75 C-13.14429835 9.69766061 -13.74414459 8.30730931 -13 5 C-9.15907692 -0.40129808 -6.22542668 -0.88934667 0 0 Z " fill="#FCC522" transform="translate(48,97)"/>
<path d="M0 0 C3.3 0 6.6 0 10 0 C10 12.87 10 25.74 10 39 C6.7 39 3.4 39 0 39 C0 26.13 0 13.26 0 0 Z " fill="#1D1D1D" transform="translate(291,22)"/>
<path d="M0 0 C2.1357975 -0.36914349 2.1357975 -0.36914349 4.83413696 -0.36076355 C5.85499893 -0.36488754 6.8758609 -0.36901154 7.92765808 -0.3732605 C9.05190689 -0.36247467 10.1761557 -0.35168884 11.33447266 -0.34057617 C12.51494675 -0.34101425 13.69542084 -0.34145233 14.91166687 -0.34190369 C18.15333493 -0.34016871 21.39461714 -0.32509794 24.63620806 -0.30418181 C28.02213402 -0.28545926 31.40806713 -0.28366808 34.79403687 -0.28010559 C41.2078754 -0.27077206 47.62156098 -0.24614075 54.03533208 -0.21605712 C61.33630623 -0.18255365 68.63728759 -0.16603733 75.93831944 -0.15097082 C90.95896493 -0.11959222 105.97946719 -0.06680648 121 0 C121 0.99 121 1.98 121 3 C80.41 3 39.82 3 -2 3 C-1.34 2.01 -0.68 1.02 0 0 Z " fill="#C93136" transform="translate(260,106)"/>
<path d="M0 0 C0.86625 0.185625 1.7325 0.37125 2.625 0.5625 C5.13331011 1.02455713 6.60595139 0.7980162 9 0 C9.33 0.66 9.66 1.32 10 2 C10.66 1.34 11.32 0.68 12 0 C14.5 -0.3125 14.5 -0.3125 17 0 C19.35119399 3.52679099 19.21443452 5.02879485 19.125 9.1875 C19.10695313 10.27417969 19.08890625 11.36085938 19.0703125 12.48046875 C19.04710937 13.31191406 19.02390625 14.14335938 19 15 C18.01 15 17.02 15 16 15 C15.67 11.37 15.34 7.74 15 4 C13.68 4 12.36 4 11 4 C10.67 7.63 10.34 11.26 10 15 C7.525 14.505 7.525 14.505 5 14 C2.14953359 14.23155049 -0.64692642 14.62818384 -3.4765625 15.0390625 C-6 15 -6 15 -7.8125 13.8046875 C-9.29342174 11.55407617 -9.40180508 10.18050777 -9.375 7.5 C-9.38273437 6.7265625 -9.39046875 5.953125 -9.3984375 5.15625 C-8.39861762 -0.25453995 -4.84001802 -0.38720144 0 0 Z " fill="#D0D0D0" transform="translate(350,76)"/>
<path d="M0 0 C-0.33 2.97 -0.66 5.94 -1 9 C-2.11375 9.268125 -3.2275 9.53625 -4.375 9.8125 C-8.21840951 10.65809019 -8.21840951 10.65809019 -10 14 C-10.29452584 16.38677076 -10.4928217 18.78626094 -10.625 21.1875 C-10.69976562 22.45980469 -10.77453125 23.73210938 -10.8515625 25.04296875 C-10.90054688 26.01878906 -10.94953125 26.99460937 -11 28 C-13.64 28 -16.28 28 -19 28 C-19 19.09 -19 10.18 -19 1 C-16.36 1 -13.72 1 -11 1 C-11 1.99 -11 2.98 -11 4 C-10.113125 3.34 -9.22625 2.68 -8.3125 2 C-5.01888014 0.01139933 -3.71748127 -0.43735074 0 0 Z " fill="#060606" transform="translate(166,32)"/>
<path d="M0 0 C2 3.75 2 3.75 2 6 C2.99 6 3.98 6 5 6 C5.45543387 11.69292334 4.68246386 14.6015015 1 19 C-0.33333333 19.66666667 -1.66666667 20.33333333 -3 21 C-3.67441131 22.6635479 -4.3400321 24.33066942 -5 26 C-9.02173913 30.89130435 -9.02173913 30.89130435 -12.8125 31.3125 C-13.534375 31.209375 -14.25625 31.10625 -15 31 C-15.66 28.69 -16.32 26.38 -17 24 C-16.38125 23.505 -15.7625 23.01 -15.125 22.5 C-13.00102394 20.00120463 -12.56869532 18.95187439 -11.875 15.875 C-11 12 -11 12 -9 10 C-6.68234271 9.28072705 -4.34904126 8.6090107 -2 8 C-1.34 5.36 -0.68 2.72 0 0 Z " fill="#F9F2EB" transform="translate(95,85)"/>
<path d="M0 0 C0.99 0 1.98 0 3 0 C3 0.99 3 1.98 3 3 C3.98742187 2.97679688 4.97484375 2.95359375 5.9921875 2.9296875 C7.27351562 2.91164063 8.55484375 2.89359375 9.875 2.875 C11.78925781 2.84019531 11.78925781 2.84019531 13.7421875 2.8046875 C17 3 17 3 19 5 C19.26991906 7.68839385 19.08737357 10.29141936 19 13 C18.01 13.495 18.01 13.495 17 14 C17 13.01 17 12.02 17 11 C15.35 11.33 13.7 11.66 12 12 C12 12.99 12 13.98 12 15 C12.99 15.33 13.98 15.66 15 16 C15 16.66 15 17.32 15 18 C11.28400809 18.20086443 10.22791555 18.1519437 7 16 C7 16.66 7 17.32 7 18 C5.00045254 18.04254356 2.99958364 18.04080783 1 18 C-0.71275393 16.28724607 -0.36909032 13.96433616 -0.5625 11.625 C-0.64628906 10.64789063 -0.73007813 9.67078125 -0.81640625 8.6640625 C-1.04353574 5.36826861 -1.05484314 3.16452941 0 0 Z " fill="#DCDCDC" transform="translate(179,73)"/>
<path d="M0 0 C5.35048061 0.37328935 7.50912907 1.9957657 11 6 C10.67 6.99 10.34 7.98 10 9 C7.36 8.67 4.72 8.34 2 8 C2.12375 9.6396875 2.12375 9.6396875 2.25 11.3125 C2 15 2 15 0.3125 16.9375 C-2.48593587 18.22326783 -3.95344469 18.52014359 -7 18 C-10.77285753 15.85633095 -11.8164503 14.65389581 -13 10.4375 C-13 7 -13 7 -11.79296875 5.296875 C-9.48273089 3.62585328 -8.13257402 3.68988809 -5.3125 3.8125 C-4.10013672 3.85310547 -4.10013672 3.85310547 -2.86328125 3.89453125 C-2.24839844 3.92933594 -1.63351563 3.96414062 -1 4 C-0.67 2.68 -0.34 1.36 0 0 Z " fill="#FBC526" transform="translate(66,22)"/>
<path d="M0 0 C6.14587738 0.1205074 6.14587738 0.1205074 8.578125 2.625 C9.80796624 4.37787717 10.94469135 6.13740456 12 8 C13.32 7.67 14.64 7.34 16 7 C16 8.32 16 9.64 16 11 C16.99 11.33 17.98 11.66 19 12 C18.67 13.32 18.34 14.64 18 16 C15.525 14.515 15.525 14.515 13 13 C13.020625 14.134375 13.04125 15.26875 13.0625 16.4375 C13 20 13 20 12 21 C9.75 21.375 9.75 21.375 7 21 C2.46502295 17.51966877 1.4016511 14.40636851 0 9 C-1.47761659 7.09829946 -1.47761659 7.09829946 -3 6 C-1.68 6 -0.36 6 1 6 C0.67 4.02 0.34 2.04 0 0 Z " fill="#F9F2EF" transform="translate(80,33)"/>
<path d="M0 0 C3.0625 2.0625 3.0625 2.0625 5 5 C5.06886551 8.92533388 4.55357459 11.13642364 2.4375 14.4375 C-0.55675314 16.35689304 -2.57979374 16.64198916 -6.09375 16.4453125 C-8 16 -8 16 -10.5 13.9375 C-12.37276489 10.27000208 -12.59172793 8.06812955 -12 4 C-9.16483673 -0.60714032 -5.04704965 -1.13708233 0 0 Z " fill="#FDC421" transform="translate(65,82)"/>
<path d="M0 0 C1.65 0 3.3 0 5 0 C6.65 4.62 8.3 9.24 10 14 C11.0828125 10.8134375 11.0828125 10.8134375 12.1875 7.5625 C13.41796875 3.94140625 13.41796875 3.94140625 15 1 C16.65 0.67 18.3 0.34 20 0 C20 6.6 20 13.2 20 20 C19.01 20 18.02 20 17 20 C16.67 16.04 16.34 12.08 16 8 C14.68 11.63 13.36 15.26 12 19 C10.68 18.67 9.36 18.34 8 18 C6.21060624 14.45987223 5.21971038 10.78981439 4 7 C3.67 11.29 3.34 15.58 3 20 C2.01 20 1.02 20 0 20 C0 13.4 0 6.8 0 0 Z " fill="#2E2E2E" transform="translate(215,71)"/>
<path d="M0 0 C0.66 0 1.32 0 2 0 C2.99 0 3.98 0 5 0 C5.1081866 2.58445773 5.18737237 5.16437352 5.25 7.75 C5.30027344 8.84441406 5.30027344 8.84441406 5.3515625 9.9609375 C5.41604881 13.50768475 5.30464524 15.57496002 3.2109375 18.49609375 C0.07360598 20.63014434 -2.29422802 20.34312704 -6 20 C-6.66 19.67 -7.32 19.34 -8 19 C-8 18.34 -8 17.68 -8 17 C-5.36 17 -2.72 17 0 17 C0.66 15.68 1.32 14.36 2 13 C1.01 13.495 1.01 13.495 0 14 C-2.9375 14.3125 -2.9375 14.3125 -6 14 C-8.56002346 11.781313 -8.94923191 10.34812407 -9.4375 7 C-9 4 -9 4 -7.3125 1.625 C-4.58078492 -0.29458357 -3.26687164 -0.34388123 0 0 Z " fill="#272727" transform="translate(293,76)"/>
<path d="M0 0 C1.32 0.33 2.64 0.66 4 1 C4.33 0.67 4.66 0.34 5 0 C7.3125 -0.375 7.3125 -0.375 10 0 C12.375 2.0625 12.375 2.0625 14 5 C13.93940468 8.51452845 13.60267457 10.92857854 11.875 14 C8.85200363 15.61226473 6.2411345 14.67268829 3 14 C3 15.98 3 17.96 3 20 C2.01 20 1.02 20 0 20 C0 13.4 0 6.8 0 0 Z " fill="#272727" transform="translate(154,76)"/>
<path d="M0 0 C0.99 0 1.98 0 3 0 C3.33 1.98 3.66 3.96 4 6 C4.99 5.34 5.98 4.68 7 4 C9.6875 4.375 9.6875 4.375 12 5 C12 6.32 12 7.64 12 9 C11.01 9.495 11.01 9.495 10 10 C10 11.32 10 12.64 10 14 C7.625 14.125 7.625 14.125 5 14 C4.34 13.34 3.68 12.68 3 12 C2.443125 12.33 1.88625 12.66 1.3125 13 C-1.32401158 14.14011312 -3.15554856 14.2306312 -6 14 C-7 13 -7 13 -7.25 10.125 C-7 7 -7 7 -5.75 5.125 C-4 4 -4 4 0 4 C0 2.68 0 1.36 0 0 Z " fill="#949292" transform="translate(369,116)"/>
<path d="M0 0 C1.79244141 0.01740234 1.79244141 0.01740234 3.62109375 0.03515625 C5.41740234 0.04869141 5.41740234 0.04869141 7.25 0.0625 C8.17683594 0.07410156 9.10367188 0.08570313 10.05859375 0.09765625 C11.16862628 3.42775385 10.99290995 4.07609066 9.80859375 7.22265625 C9.5559375 7.92648438 9.30328125 8.6303125 9.04296875 9.35546875 C8.05859375 11.09765625 8.05859375 11.09765625 5.05859375 12.09765625 C2.796875 11.7578125 2.796875 11.7578125 0.37109375 11.16015625 C-0.43714844 10.96550781 -1.24539062 10.77085938 -2.078125 10.5703125 C-2.69300781 10.41433594 -3.30789062 10.25835937 -3.94140625 10.09765625 C-3.96829841 8.61858733 -3.98775246 7.13938142 -4.00390625 5.66015625 C-4.01550781 4.83644531 -4.02710938 4.01273438 -4.0390625 3.1640625 C-3.88296719 -0.13891421 -3.35803623 0.11148859 0 0 Z " fill="#FDFDFA" transform="translate(56.94140625,38.90234375)"/>
<path d="M0 0 C1.32 0.33 2.64 0.66 4 1 C5.2684375 0.7215625 5.2684375 0.7215625 6.5625 0.4375 C9 0 9 0 12 2 C12.66 1.34 13.32 0.68 14 0 C18.55555556 0.55555556 18.55555556 0.55555556 20 2 C20.07244053 4.01964199 20.08377188 6.04167124 20.0625 8.0625 C20.05347656 9.16722656 20.04445313 10.27195312 20.03515625 11.41015625 C20.02355469 12.26480469 20.01195312 13.11945313 20 14 C19.34 14 18.68 14 18 14 C17.505 9.05 17.505 9.05 17 4 C15.68 4 14.36 4 13 4 C12.67 7.63 12.34 11.26 12 15 C11.01 15 10.02 15 9 15 C8.67 11.37 8.34 7.74 8 4 C6.68 4 5.36 4 4 4 C3.67 7.63 3.34 11.26 3 15 C2.01 15 1.02 15 0 15 C0 10.05 0 5.1 0 0 Z " fill="#252525" transform="translate(317,76)"/>
<path d="M0 0 C2.3431213 0.25561323 4.67843403 0.59270772 7 1 C8.16983345 3.3396669 8.1661241 4.83391527 8.1875 7.4375 C8.20167969 8.21996094 8.21585937 9.00242187 8.23046875 9.80859375 C8 12 8 12 6 15 C3.0625 15.4375 3.0625 15.4375 0 15 C-2.80872754 12.65939372 -2.98435997 11.14597363 -3.375 7.5 C-2.99007552 3.90737156 -2.45622327 2.55856591 0 0 Z " fill="#F0F0F0" transform="translate(317,39)"/>
<path d="M0 0 C2.9375 0.875 2.9375 0.875 4.9375 3.875 C5.2843602 7.69046222 5.47116895 10.00778796 3.4375 13.3125 C2.9425 13.828125 2.4475 14.34375 1.9375 14.875 C-0.4056213 14.61938677 -2.74093403 14.28229228 -5.0625 13.875 C-6.22593227 11.54813547 -6.26145988 10.02778587 -6.3125 7.4375 C-6.35117188 6.26380859 -6.35117188 6.26380859 -6.390625 5.06640625 C-6.0625 2.875 -6.0625 2.875 -4.73828125 1.08203125 C-3.0625 -0.125 -3.0625 -0.125 0 0 Z " fill="#F2F2F2" transform="translate(212.0625,39.125)"/>
<path d="M0 0 C1.6796875 1.12890625 1.6796875 1.12890625 3 3 C3.29296875 5.91796875 3.29296875 5.91796875 3.1875 9.1875 C3.16042969 10.27417969 3.13335937 11.36085938 3.10546875 12.48046875 C3.07066406 13.31191406 3.03585938 14.14335938 3 15 C1.37536158 15.05395478 -0.24978541 15.09277195 -1.875 15.125 C-2.77992188 15.14820312 -3.68484375 15.17140625 -4.6171875 15.1953125 C-7 15 -7 15 -9 13 C-8.67028521 9.70285207 -8.3773161 8.3773161 -6 6 C-2.875 5.875 -2.875 5.875 0 6 C-0.33 5.01 -0.66 4.02 -1 3 C-3.31 3 -5.62 3 -8 3 C-8 2.34 -8 1.68 -8 1 C-5.20129973 -0.39935013 -3.09501208 -0.25265405 0 0 Z " fill="#282828" transform="translate(147,76)"/>
<path d="M0 0 C0.99 0.66 1.98 1.32 3 2 C3.29296875 4.8203125 3.29296875 4.8203125 3.1875 8.125 C3.16042969 9.22070312 3.13335937 10.31640625 3.10546875 11.4453125 C3.07066406 12.28835937 3.03585938 13.13140625 3 14 C-0.3 14.33 -3.6 14.66 -7 15 C-7.625 11.625 -7.625 11.625 -8 8 C-6 6 -6 6 -2.875 5.875 C-1.92625 5.91625 -0.9775 5.9575 0 6 C-0.33 5.01 -0.66 4.02 -1 3 C-3.31 3 -5.62 3 -8 3 C-8 2.34 -8 1.68 -8 1 C-5.22899606 -0.38550197 -3.0665294 -0.1877467 0 0 Z " fill="#070707" transform="translate(247,76)"/>
<path d="M0 0 C3.375 0.9375 3.375 0.9375 5.375 3.9375 C5.375 5.2575 5.375 6.5775 5.375 7.9375 C2.075 7.9375 -1.225 7.9375 -4.625 7.9375 C-3.965 9.2575 -3.305 10.5775 -2.625 11.9375 C-0.315 11.9375 1.995 11.9375 4.375 11.9375 C4.375 12.5975 4.375 13.2575 4.375 13.9375 C-2.875 15.3875 -2.875 15.3875 -6.125 13.4375 C-8.18119196 10.0105134 -8.18658278 7.86857944 -7.625 3.9375 C-5.3368323 0.27643167 -4.34846249 -0.07497349 0 0 Z " fill="#262626" transform="translate(308.625,76.0625)"/>
<path d="M0 0 C5.625 -0.25 5.625 -0.25 9 2 C9 1.34 9 0.68 9 0 C9.99 0 10.98 0 12 0 C11.34 4.29 10.68 8.58 10 13 C8.02 13 6.04 13 4 13 C3.67 11.35 3.34 9.7 3 8 C2.01 7.67 1.02 7.34 0 7 C0 8.65 0 10.3 0 12 C-0.66 11.67 -1.32 11.34 -2 11 C-1.34 7.37 -0.68 3.74 0 0 Z " fill="#969595" transform="translate(225,117)"/>
<path d="M0 0 C0.99 0.66 1.98 1.32 3 2 C3.29296875 4.8203125 3.29296875 4.8203125 3.1875 8.125 C3.16042969 9.22070312 3.13335937 10.31640625 3.10546875 11.4453125 C3.07066406 12.28835937 3.03585937 13.13140625 3 14 C1.54364629 14.22174933 0.08477044 14.42698698 -1.375 14.625 C-2.18710937 14.74101563 -2.99921875 14.85703125 -3.8359375 14.9765625 C-4.55007813 14.98429687 -5.26421875 14.99203125 -6 15 C-8 13 -8 13 -8.25 10.5 C-8 8 -8 8 -6 6 C-2.875 5.875 -2.875 5.875 0 6 C-0.33 5.01 -0.66 4.02 -1 3 C-3.31 3 -5.62 3 -8 3 C-8 2.34 -8 1.68 -8 1 C-5.22899606 -0.38550197 -3.0665294 -0.1877467 0 0 Z " fill="#1B1B1B" transform="translate(278,76)"/>
<path d="M0 0 C1.875 1.1875 1.875 1.1875 3 3 C3 4.65 3 6.3 3 8 C-0.3 8 -3.6 8 -7 8 C-6.01 9.32 -5.02 10.64 -4 12 C-0.37436186 12.33380814 -0.37436186 12.33380814 3 12 C1.875 13.5 1.875 13.5 0 15 C-5.13939394 15.64242424 -5.13939394 15.64242424 -7.6640625 13.7578125 C-9.35152036 11.53747321 -9.4026536 10.26536019 -9.375 7.5 C-9.38273437 6.7265625 -9.39046875 5.953125 -9.3984375 5.15625 C-8.41808061 -0.1492108 -4.82244972 -0.60280621 0 0 Z " fill="#151515" transform="translate(350,76)"/>
<path d="M0 0 C3.875 0.5 3.875 0.5 6.875 2.5 C6.545 3.49 6.215 4.48 5.875 5.5 C5.318125 5.149375 4.76125 4.79875 4.1875 4.4375 C1.28968152 3.26270872 -0.1767025 3.56895868 -3.125 4.5 C-5.49698957 6.43602047 -5.49698957 6.43602047 -5.375 9.9375 C-5.41309647 13.60420618 -5.41309647 13.60420618 -3.125 16.5 C0.41172026 16.80754089 3.48545199 16.54293785 6.875 15.5 C5.125 19.375 5.125 19.375 2.875 20.5 C-0.99714182 20.93023798 -2.64996371 20.81669086 -5.9375 18.625 C-8.89905404 15.74806179 -9.0793892 14.95610802 -9.5 10.75 C-9.4423005 7.58806746 -8.96348634 5.59115525 -7.125 3 C-4.12529417 0.50024514 -3.62398865 0.10698121 0 0 Z " fill="#1B1B1B" transform="translate(129.125,70.5)"/>
<path d="M0 0 C1.65 0 3.3 0 5 0 C5.34933594 0.98742187 5.69867188 1.97484375 6.05859375 2.9921875 C6.51816214 4.28648214 6.97780123 5.58075167 7.4375 6.875 C7.78264648 7.85146484 7.78264648 7.85146484 8.13476562 8.84765625 C9.42160116 12.48434022 9.42160116 12.48434022 11 16 C9.109375 15.75390625 9.109375 15.75390625 7 15 C5.55036313 12.44149911 4.89599095 9.8223715 4 7 C3.67 11.29 3.34 15.58 3 20 C2.01 20 1.02 20 0 20 C0 13.4 0 6.8 0 0 Z " fill="#2A2A2A" transform="translate(215,71)"/>
<path d="M0 0 C2.31 0 4.62 0 7 0 C7.21192221 5.19209404 6.5912689 9.126739 5 14 C4.01 14 3.02 14 2 14 C1.67 12.68 1.34 11.36 1 10 C0.67 10.99 0.34 11.98 0 13 C-0.66 13 -1.32 13 -2 13 C-2.16682272 8.07872966 -2.24828052 4.49656104 0 0 Z " fill="#B4B3B3" transform="translate(304,116)"/>
<path d="M0 0 C0.99 0.66 1.98 1.32 3 2 C2.51812367 6.57782516 2.51812367 6.57782516 0.3125 8.375 C-3.36968795 9.37018593 -6.61861148 8.69069426 -10 7 C-10 5.35 -10 3.7 -10 2 C-6.59677126 -0.09429461 -3.96047946 -0.33706208 0 0 Z " fill="#FBC628" transform="translate(48,121)"/>
<path d="M0 0 C0.21153631 4.16021408 0.34125965 7.08997426 -1.125 11 C-3 13 -3 13 -6.1875 13.3125 C-7.115625 13.209375 -8.04375 13.10625 -9 13 C-9 12.34 -9 11.68 -9 11 C-7.35 11 -5.7 11 -4 11 C-4 10.34 -4 9.68 -4 9 C-5.65 8.67 -7.3 8.34 -9 8 C-9.22223194 5.25913944 -9.34781139 3.56036279 -7.875 1.1875 C-5.22464043 -0.49106106 -3.06753576 -0.20450238 0 0 Z " fill="#898888" transform="translate(331,120)"/>
<path d="M0 0 C1.32 0.33 2.64 0.66 4 1 C4.33 0.67 4.66 0.34 5 0 C7.4375 -0.1875 7.4375 -0.1875 10 0 C12 2 12 2 12.1953125 4.8203125 C12.16050781 6.45613281 12.16050781 6.45613281 12.125 8.125 C12.10695313 9.22070312 12.08890625 10.31640625 12.0703125 11.4453125 C12.04710937 12.28835937 12.02390625 13.13140625 12 14 C11.34 14 10.68 14 10 14 C9.67 10.7 9.34 7.4 9 4 C7.35 4.33 5.7 4.66 4 5 C3.67 8.3 3.34 11.6 3 15 C2.01 15 1.02 15 0 15 C0 10.05 0 5.1 0 0 Z " fill="#2E2E2E" transform="translate(254,76)"/>
<path d="M0 0 C1.20462891 -0.02126953 1.20462891 -0.02126953 2.43359375 -0.04296875 C4.5625 0.1875 4.5625 0.1875 6.5625 2.1875 C6.00694444 6.74305556 6.00694444 6.74305556 4.5625 8.1875 C2.56640625 8.35546875 2.56640625 8.35546875 0.125 8.375 C-1.07962891 8.39626953 -1.07962891 8.39626953 -2.30859375 8.41796875 C-4.4375 8.1875 -4.4375 8.1875 -6.4375 6.1875 C-5.79333405 0.90533919 -5.22747665 0.04181981 0 0 Z " fill="#FBC420" transform="translate(44.4375,18.8125)"/>
<path d="M0 0 C0.99 0 1.98 0 3 0 C3 1.32 3 2.64 3 4 C4.32 4.33 5.64 4.66 7 5 C7.36190476 10.42857143 7.36190476 10.42857143 5.8125 12.875 C3.43963721 14.34781139 1.74086056 14.22223194 -1 14 C-2.59789351 9.04653013 -1.28306814 4.86717585 0 0 Z " fill="#2C2B2B" transform="translate(293,116)"/>
<path d="M0 0 C0.99 0.33 1.98 0.66 3 1 C1.515 2.485 1.515 2.485 0 4 C0.66 4 1.32 4 2 4 C2 4.66 2 5.32 2 6 C1.01 6 0.02 6 -1 6 C-0.979375 6.94875 -0.95875 7.8975 -0.9375 8.875 C-1 12 -1 12 -2 14 C-2.66 14 -3.32 14 -4 14 C-4.33 13.34 -4.66 12.68 -5 12 C-5.66 12.66 -6.32 13.32 -7 14 C-8.32 14 -9.64 14 -11 14 C-11 13.34 -11 12.68 -11 12 C-9.68 12 -8.36 12 -7 12 C-7.99 10.68 -8.98 9.36 -10 8 C-9.34 6.68 -8.68 5.36 -8 4 C-6.02 4 -4.04 4 -2 4 C-1.34 2.68 -0.68 1.36 0 0 Z " fill="#969696" transform="translate(163,116)"/>
<path d="M0 0 C1.2684375 0.12375 1.2684375 0.12375 2.5625 0.25 C4.91369399 3.77679099 4.77693452 5.27879485 4.6875 9.4375 C4.66945313 10.52417969 4.65140625 11.61085938 4.6328125 12.73046875 C4.59800781 13.97763672 4.59800781 13.97763672 4.5625 15.25 C3.5725 15.25 2.5825 15.25 1.5625 15.25 C1.2325 11.62 0.9025 7.99 0.5625 4.25 C-1.0875 4.58 -2.7375 4.91 -4.4375 5.25 C-4.7675 8.22 -5.0975 11.19 -5.4375 14.25 C-6.0975 14.25 -6.7575 14.25 -7.4375 14.25 C-7.4375 9.96 -7.4375 5.67 -7.4375 1.25 C-6.1175 1.25 -4.7975 1.25 -3.4375 1.25 C-2.4375 0.25 -2.4375 0.25 0 0 Z " fill="#292929" transform="translate(364.4375,75.75)"/>
<path d="M0 0 C1.32 0 2.64 0 4 0 C4 6.93 4 13.86 4 21 C2.68 21 1.36 21 0 21 C0 14.07 0 7.14 0 0 Z " fill="#535353" transform="translate(202,70)"/>
<path d="M0 0 C3.375 -0.125 3.375 -0.125 7 0 C9 2 9 2 9.1953125 3.9453125 C9.13020833 5.96354167 9.06510417 7.98177083 9 10 C8.01 10.495 8.01 10.495 7 11 C7 10.01 7 9.02 7 8 C5.35 8.33 3.7 8.66 2 9 C2 9.99 2 10.98 2 12 C2.99 12.33 3.98 12.66 5 13 C5 13.66 5 14.32 5 15 C2.625 15.125 2.625 15.125 0 15 C-2 13 -2 13 -2.3125 10.5 C-2.209375 9.675 -2.10625 8.85 -2 8 C1.4352048 5.70986347 2.985331 5.82157027 7 6 C6.34 5.01 5.68 4.02 5 3 C1.91634129 2.7497843 1.91634129 2.7497843 -1 3 C-0.67 2.01 -0.34 1.02 0 0 Z " fill="#181818" transform="translate(189,76)"/>
<path d="M0 0 C-0.33 3.3 -0.66 6.6 -1 10 C-3.33294775 10.04241723 -5.66702567 10.04092937 -8 10 C-9 9 -9 9 -9.25 6.125 C-9 3 -9 3 -7.875 1.125 C-5.21965017 -0.4682099 -3.03210482 -0.20214032 0 0 Z " fill="#3E3D3D" transform="translate(290,120)"/>
<path d="M0 0 C-0.33 3.3 -0.66 6.6 -1 10 C-3.33294775 10.04241723 -5.66702567 10.04092937 -8 10 C-9 9 -9 9 -9.25 6.125 C-9 3 -9 3 -7.875 1.125 C-5.21965017 -0.4682099 -3.03210482 -0.20214032 0 0 Z " fill="#545353" transform="translate(361,120)"/>
<path d="M0 0 C-0.11389875 1.79240663 -0.24147687 3.58394835 -0.375 5.375 C-0.44460937 6.37273437 -0.51421875 7.37046875 -0.5859375 8.3984375 C-1 11 -1 11 -3 13 C-5.625 13.125 -5.625 13.125 -8 13 C-6.68 12.01 -5.36 11.02 -4 10 C-4.99 10 -5.98 10 -7 10 C-8.33359073 3.57451737 -8.33359073 3.57451737 -6.875 1.0625 C-4.477832 -0.2958952 -2.71500495 -0.07566407 0 0 Z " fill="#454444" transform="translate(218,120)"/>
<path d="M0 0 C0.66 0 1.32 0 2 0 C2 1.32 2 2.64 2 4 C2.66 4 3.32 4 4 4 C4 2.68 4 1.36 4 0 C5.99954746 -0.04254356 8.00041636 -0.04080783 10 0 C11 1 11 1 11.1875 3.9375 C11 7 11 7 9 9 C9 6.69 9 4.38 9 2 C5.68539295 3.70892499 5.68539295 3.70892499 5.3125 7.125 C5.209375 8.07375 5.10625 9.0225 5 10 C2.69 10 0.38 10 -2 10 C-1.34 6.7 -0.68 3.4 0 0 Z " fill="#9A999A" transform="translate(197,120)"/>
<path d="M0 0 C2.64 0 5.28 0 8 0 C8 0.66 8 1.32 8 2 C7.195625 2.12375 6.39125 2.2475 5.5625 2.375 C4.2940625 2.684375 4.2940625 2.684375 3 3 C2.67 3.66 2.34 4.32 2 5 C3.65 5 5.3 5 7 5 C7 5.66 7 6.32 7 7 C5.35 7 3.7 7 2 7 C2 7.99 2 8.98 2 10 C3.32 10 4.64 10 6 10 C6 10.99 6 11.98 6 13 C3.36 13 0.72 13 -2 13 C-1.48041715 8.62065881 -0.94324258 4.31196609 0 0 Z " fill="#424141" transform="translate(262,117)"/>
<path d="M0 0 C6.43014706 0.48529412 6.43014706 0.48529412 8.9375 2.75 C10.16717908 5.35402628 10.23723981 7.15312226 10 10 C9.01 10.33 8.02 10.66 7 11 C1.33272395 7.25959781 1.33272395 7.25959781 0.125 2.6875 C0.08375 1.800625 0.0425 0.91375 0 0 Z " fill="#FBC420" transform="translate(80,33)"/>
<path d="M0 0 C2.93453261 0.36681658 3.86437246 0.86437246 6 3 C6.37271546 5.90718056 6.39278138 7.41082793 4.75 9.875 C3 11 3 11 0.875 10.75 C-1 10 -1 10 -2 9 C-2.1875 5.5625 -2.1875 5.5625 -2 2 C-1.34 1.34 -0.68 0.68 0 0 Z " fill="#E7E7E7" transform="translate(159,78)"/>
<path d="M0 0 C0.3125 2.1875 0.3125 2.1875 0 5 C-2.1875 7.8125 -2.1875 7.8125 -5 10 C-7.8125 10.3125 -7.8125 10.3125 -10 10 C-9.69481346 6.43949035 -8.99971192 4.99964963 -6.6875 2.1875 C-4 0 -4 0 0 0 Z " fill="#FAC524" transform="translate(90,106)"/>
<path d="M0 0 C-0.33 3.3 -0.66 6.6 -1 10 C-2.99954746 10.04254356 -5.00041636 10.04080783 -7 10 C-8 9 -8 9 -8.25 6.125 C-8 3 -8 3 -6.8125 1.125 C-5 0 -5 0 0 0 Z " fill="#474647" transform="translate(141,120)"/>
<path d="M0 0 C0.66 0 1.32 0 2 0 C2.625 3.375 2.625 3.375 3 7 C2.34 7.66 1.68 8.32 1 9 C1.23605745 13.83763919 1.23605745 13.83763919 3.5625 17.9375 C4.2740625 18.4634375 4.2740625 18.4634375 5 19 C4.38125 19.12375 3.7625 19.2475 3.125 19.375 C0.80879168 19.87197356 0.80879168 19.87197356 -1 22 C-3.83320976 16.68773171 -3.18394289 11.21150739 -2.5 5.3125 C-2.4071875 4.50425781 -2.314375 3.69601563 -2.21875 2.86328125 C-2.1465625 2.24839844 -2.074375 1.63351563 -2 1 C-1.67 2.32 -1.34 3.64 -1 5 C-0.34 5 0.32 5 1 5 C0.67 3.35 0.34 1.7 0 0 Z " fill="#FCF9F0" transform="translate(53,20)"/>
<path d="M0 0 C1.67542976 0.28604898 3.34385343 0.61781233 5 1 C5.625 3.8125 5.625 3.8125 6 7 C5.01 8.485 5.01 8.485 4 10 C-0.875 9.125 -0.875 9.125 -2 8 C-1.28 1.28 -1.28 1.28 0 0 Z " fill="#E7E7E7" transform="translate(289,78)"/>
<path d="M0 0 C1.875 0.75 1.875 0.75 2.875 1.75 C3.17478682 4.59797478 3.27571289 6.16896632 1.625 8.5625 C-0.125 9.75 -0.125 9.75 -4.125 9.75 C-5.46054084 3.31512141 -5.46054084 3.31512141 -3.9375 0.75 C-2.125 -0.25 -2.125 -0.25 0 0 Z " fill="#494848" transform="translate(170.125,120.25)"/>
<path d="M0 0 C0.763125 0.20625 1.52625 0.4125 2.3125 0.625 C2.3125 1.945 2.3125 3.265 2.3125 4.625 C1.3225 5.12 1.3225 5.12 0.3125 5.625 C0.3125 6.945 0.3125 8.265 0.3125 9.625 C-1.35361905 9.667721 -3.02132885 9.66563832 -4.6875 9.625 C-5.6875 8.625 -5.6875 8.625 -5.9375 5.1875 C-5.855 4.011875 -5.7725 2.83625 -5.6875 1.625 C-2.6875 -0.375 -2.6875 -0.375 0 0 Z " fill="#474646" transform="translate(378.6875,120.375)"/>
<path d="M0 0 C-0.38295049 2.22111286 -0.86920188 3.80380283 -2.125 5.6875 C-4.90436873 7.63305811 -7.67889163 7.68668789 -11 8 C-11 4 -11 4 -8.875 1.75 C-5.59175057 -0.24849965 -3.77281397 -0.35095944 0 0 Z " fill="#FAC729" transform="translate(77,119)"/>
<path d="M0 0 C1.134375 0.020625 2.26875 0.04125 3.4375 0.0625 C4.28204356 3.44067425 4.54594919 5.73715243 3.4375 9.0625 C2.4475 9.0625 1.4575 9.0625 0.4375 9.0625 C0.7675 6.7525 1.0975 4.4425 1.4375 2.0625 C-1.46182357 4.45759338 -2.06418276 6.37495243 -2.5625 10.0625 C-3.5525 10.0625 -4.5425 10.0625 -5.5625 10.0625 C-5.42200482 8.58281676 -5.27495174 7.10375484 -5.125 5.625 C-5.04378906 4.80128906 -4.96257812 3.97757812 -4.87890625 3.12890625 C-4.33318036 -0.43515544 -3.8167938 0.06696129 0 0 Z " fill="#3D3B3C" transform="translate(316.5625,119.9375)"/>
<path d="M0 0 C0.3763524 3.9517002 0.09508438 5.82294633 -1.8125 9.375 C-2.534375 10.24125 -3.25625 11.1075 -4 12 C-4.99 12 -5.98 12 -7 12 C-7.32325181 7.87853942 -7.39022067 5.6324266 -5.1875 2.0625 C-3 0 -3 0 0 0 Z " fill="#FAC626" transform="translate(100,92)"/>
<path d="M0 0 C0.66 0 1.32 0 2 0 C2.66 1.32 3.32 2.64 4 4 C4.33 4 4.66 4 5 4 C5.125 6.875 5.125 6.875 5 10 C4.34 10.66 3.68 11.32 3 12 C-0.53571429 11.46428571 -0.53571429 11.46428571 -2 10 C-2.35897436 3.53846154 -2.35897436 3.53846154 0 0 Z " fill="#C52126" transform="translate(98,70)"/>
<path d="M0 0 C2.00720923 0.28674418 4.0085944 0.61866701 6 1 C6 4.3 6 7.6 6 11 C5.01 11 4.02 11 3 11 C2.67 10.34 2.34 9.68 2 9 C1.01 9.495 1.01 9.495 0 10 C-0.19412181 8.52168779 -0.38012131 7.04230684 -0.5625 5.5625 C-0.66691406 4.73878906 -0.77132812 3.91507813 -0.87890625 3.06640625 C-0.91886719 2.38449219 -0.95882812 1.70257813 -1 1 C-0.67 0.67 -0.34 0.34 0 0 Z " fill="#C62025" transform="translate(83,54)"/>
<path d="M0 0 C0.33 0.33 0.66 0.66 1 1 C0.82364548 3.69082872 0.38164079 6.32851446 0 9 C-0.33 9 -0.66 9 -1 9 C-1 6.69 -1 4.38 -1 2 C-4.31460705 3.70892499 -4.31460705 3.70892499 -4.6875 7.125 C-4.790625 8.07375 -4.89375 9.0225 -5 10 C-5.66 10 -6.32 10 -7 10 C-6.67 7.36 -6.34 4.72 -6 2 C-6.99 2.33 -7.98 2.66 -9 3 C-10.22520264 6.00847418 -10.22520264 6.00847418 -11 9 C-11.33 9 -11.66 9 -12 9 C-12.125 3.25 -12.125 3.25 -11 1 C-7.11651516 -0.29449495 -4.09302664 -0.13203312 0 0 Z " fill="#474545" transform="translate(193,120)"/>
<path d="M0 0 C1.6796875 1.16015625 1.6796875 1.16015625 3 3 C3.29296875 5.69921875 3.29296875 5.69921875 3.1875 8.6875 C3.16042969 9.68136719 3.13335937 10.67523438 3.10546875 11.69921875 C3.07066406 12.45847656 3.03585938 13.21773437 3 14 C1.68 13.34 0.36 12.68 -1 12 C-0.67 10.35 -0.34 8.7 0 7 C-0.99 6.67 -1.98 6.34 -3 6 C-2.01 6 -1.02 6 0 6 C-0.33 5.01 -0.66 4.02 -1 3 C-3.31 3 -5.62 3 -8 3 C-8 2.34 -8 1.68 -8 1 C-5.20129973 -0.39935013 -3.09501208 -0.25265405 0 0 Z " fill="#151515" transform="translate(147,76)"/>
<path d="M0 0 C2.33294775 -0.04241723 4.66702567 -0.04092937 7 0 C8 1 8 1 8.0625 4.5625 C8.041875 5.696875 8.02125 6.83125 8 8 C7.01 8.33 6.02 8.66 5 9 C4.67 7.02 4.34 5.04 4 3 C3.34 4.98 2.68 6.96 2 9 C1.01 9 0.02 9 -1 9 C-0.67 6.03 -0.34 3.06 0 0 Z " fill="#393738" transform="translate(271,120)"/>
<path d="M0 0 C0.99 0 1.98 0 3 0 C2.34 4.29 1.68 8.58 1 13 C-0.98 13 -2.96 13 -5 13 C-4.34 12.67 -3.68 12.34 -3 12 C-3.20625 11.0925 -3.4125 10.185 -3.625 9.25 C-4.0127245 5.88972103 -3.80411967 4.75924185 -2 2 C-1.34 2 -0.68 2 0 2 C0 1.34 0 0.68 0 0 Z " fill="#B0AFB0" transform="translate(234,117)"/>
<path d="M0 0 C0.33 0 0.66 0 1 0 C1 2.31 1 4.62 1 7 C3.97 7.33 6.94 7.66 10 8 C10 8.33 10 8.66 10 9 C8.02 9 6.04 9 4 9 C4 9.66 4 10.32 4 11 C5.32 11.33 6.64 11.66 8 12 C6.02 12 4.04 12 2 12 C1.67 14.31 1.34 16.62 1 19 C0.67 19 0.34 19 0 19 C-0.1953125 16.94921875 -0.390625 14.8984375 -0.5859375 12.84765625 C-0.79089844 11.93306641 -0.79089844 11.93306641 -1 11 C-1.66 10.67 -2.32 10.34 -3 10 C-2.34 9.34 -1.68 8.68 -1 8 C-0.54188325 6.02764667 -0.54188325 6.02764667 -0.375 3.875 C-0.25125 2.59625 -0.1275 1.3175 0 0 Z " fill="#FACC3D" transform="translate(52,42)"/>
<path d="M0 0 C2.3828125 -0.29296875 2.3828125 -0.29296875 5.125 -0.1875 C6.03507813 -0.16042969 6.94515625 -0.13335937 7.8828125 -0.10546875 C8.58148438 -0.07066406 9.28015625 -0.03585938 10 0 C10.33 1.32 10.66 2.64 11 4 C7.04 4.66 3.08 5.32 -1 6 C-1.33 5.01 -1.66 4.02 -2 3 C-1.34 2.01 -0.68 1.02 0 0 Z " fill="#F4F4F4" transform="translate(172,39)"/>
<path d="M0 0 C0.66 0 1.32 0 2 0 C2 1.32 2 2.64 2 4 C3.32 4.33 4.64 4.66 6 5 C4.68 5 3.36 5 2 5 C2.33 8.3 2.66 11.6 3 15 C3.99 15.33 4.98 15.66 6 16 C6 16.66 6 17.32 6 18 C4.33388095 18.042721 2.66617115 18.04063832 1 18 C-0.71275393 16.28724607 -0.36909032 13.96433616 -0.5625 11.625 C-0.64628906 10.64789063 -0.73007813 9.67078125 -0.81640625 8.6640625 C-1.04353574 5.36826861 -1.05484314 3.16452941 0 0 Z " fill="#0A0A0A" transform="translate(179,73)"/>
<path d="M0 0 C1.32 0 2.64 0 4 0 C4 6.27 4 12.54 4 19 C3.34 19 2.68 19 2 19 C2 14.38 2 9.76 2 5 C1.01 5 0.02 5 -1 5 C-0.67 3.35 -0.34 1.7 0 0 Z " fill="#0F0F0F" transform="translate(231,71)"/>
<path d="M0 0 C0.33 0.66 0.66 1.32 1 2 C0.67 2.66 0.34 3.32 0 4 C2.31 4 4.62 4 7 4 C7 4.33 7 4.66 7 5 C5.02 5 3.04 5 1 5 C1.66 6.32 2.32 7.64 3 9 C5.31 9 7.62 9 10 9 C10 9.66 10 10.32 10 11 C2.75 12.45 2.75 12.45 -0.5 10.5 C-2.47864231 7.20226282 -2.29053276 4.77692583 -2 1 C-1.34 0.67 -0.68 0.34 0 0 Z " fill="#151515" transform="translate(303,79)"/>
<path d="M0 0 C0.33 0 0.66 0 1 0 C1 3.96 1 7.92 1 12 C-2.75635569 11.24872886 -4.83210307 10.75994274 -8 9 C-7.67 7.68 -7.34 6.36 -7 5 C-5.35 5 -3.7 5 -2 5 C-1.67 5.66 -1.34 6.32 -1 7 C-0.67 4.69 -0.34 2.38 0 0 Z " fill="#464646" transform="translate(198,79)"/>
<path d="M0 0 C0.66 0 1.32 0 2 0 C2 1.32 2 2.64 2 4 C3.32 4.33 4.64 4.66 6 5 C4.68 5 3.36 5 2 5 C2.33 8.3 2.66 11.6 3 15 C3.99 15.33 4.98 15.66 6 16 C6 16.66 6 17.32 6 18 C4.33388095 18.042721 2.66617115 18.04063832 1 18 C0 17 0 17 -0.09765625 14.27734375 C-0.08605469 13.17519531 -0.07445312 12.07304688 -0.0625 10.9375 C-0.05347656 9.83277344 -0.04445313 8.72804688 -0.03515625 7.58984375 C-0.02355469 6.73519531 -0.01195312 5.88054687 0 5 C-0.66 4.67 -1.32 4.34 -2 4 C-1.34 2.68 -0.68 1.36 0 0 Z " fill="#080808" transform="translate(374,73)"/>
<path d="M0 0 C0.66 0.66 1.32 1.32 2 2 C4.10820797 1.6814823 4.10820797 1.6814823 6 1 C6 2.32 6 3.64 6 5 C6.99 5.33 7.98 5.66 9 6 C8.67 7.32 8.34 8.64 8 10 C6.35 9.01 4.7 8.02 3 7 C3 9.31 3 11.62 3 14 C2.67 14 2.34 14 2 14 C2 11.36 2 8.72 2 6 C1.01 6 0.02 6 -1 6 C-0.67 4.02 -0.34 2.04 0 0 Z " fill="#F5E9E1" transform="translate(90,39)"/>
<path d="M0 0 C1.32 1.32 2.64 2.64 4 4 C3.2884375 4.8353125 3.2884375 4.8353125 2.5625 5.6875 C0.87604004 8.18346074 0.41046893 10.0446237 0 13 C-0.33 12.01 -0.66 11.02 -1 10 C-3.09719872 8.97718482 -3.09719872 8.97718482 -5.5625 8.3125 C-6.38878906 8.06113281 -7.21507812 7.80976562 -8.06640625 7.55078125 C-8.70449219 7.36902344 -9.34257813 7.18726562 -10 7 C-10 6.67 -10 6.34 -10 6 C-8.72125 5.7525 -7.4425 5.505 -6.125 5.25 C-2.73252682 4.48009414 -2.73252682 4.48009414 -0.5 1.875 C-0.335 1.25625 -0.17 0.6375 0 0 Z " fill="#FAF1EB" transform="translate(69,92)"/>
<path d="M0 0 C0.125 2.375 0.125 2.375 0 5 C-2 7 -2 7 -4.625 7.125 C-5.40875 7.08375 -6.1925 7.0425 -7 7 C-7.33 5.35 -7.66 3.7 -8 2 C-4.77208445 -0.1519437 -3.71599191 -0.20086443 0 0 Z " fill="#E5E5E5" transform="translate(183,48)"/>
<path d="M0 0 C0.33 0.66 0.66 1.32 1 2 C1.66 2 2.32 2 3 2 C3.33 2.66 3.66 3.32 4 4 C6.52733235 4.65555119 6.52733235 4.65555119 9 5 C9 5.33 9 5.66 9 6 C7.3603125 6.4021875 7.3603125 6.4021875 5.6875 6.8125 C2.38307337 7.87663739 1.05039578 8.34654664 -1 11 C-1.99 10.67 -2.98 10.34 -4 10 C-4.33 9.34 -4.66 8.68 -5 8 C-4.0409375 7.13375 -4.0409375 7.13375 -3.0625 6.25 C-1.01776132 4.01937599 -0.41794801 2.92563609 0 0 Z " fill="#FBF6E0" transform="translate(67,113)"/>
<path d="M0 0 C2.97 0 5.94 0 9 0 C9 0.66 9 1.32 9 2 C7.68 2 6.36 2 5 2 C4.67 5.63 4.34 9.26 4 13 C3.01 13 2.02 13 1 13 C1.66 9.37 2.32 5.74 3 2 C2.01 2 1.02 2 0 2 C0 1.34 0 0.68 0 0 Z " fill="#1F1E1E" transform="translate(337,117)"/>
<path d="M0 0 C0.99 0 1.98 0 3 0 C3 4.95 3 9.9 3 15 C2.01 15 1.02 15 0 15 C0 10.05 0 5.1 0 0 Z " fill="#2D2D2D" transform="translate(171,76)"/>
<path d="M0 0 C0.66 0.66 1.32 1.32 2 2 C3.2684375 2.433125 3.2684375 2.433125 4.5625 2.875 C7 4 7 4 7.8125 6.125 C7.874375 6.74375 7.93625 7.3625 8 8 C7.01 8 6.02 8 5 8 C5 6.68 5 5.36 5 4 C2.7763932 5.9254644 2.7763932 5.9254644 2 9 C0 8 0 8 -0.8125 6 C-1.85955198 3.71525923 -1.85955198 3.71525923 -4.625 3.25 C-5.40875 3.1675 -6.1925 3.085 -7 3 C-7 2.67 -7 2.34 -7 2 C-4.69 1.34 -2.38 0.68 0 0 Z " fill="#CE353E" transform="translate(95,66)"/>
<path d="M0 0 C4.43677521 -0.43497796 6.36663666 -0.47502251 10 2.25 C12 5 12 5 11.8125 7.3125 C11.544375 7.869375 11.27625 8.42625 11 9 C11 8.01 11 7.02 11 6 C10.113125 6.103125 9.22625 6.20625 8.3125 6.3125 C3.98034376 5.90380601 2.71711984 4.27652687 0 1 C0 0.67 0 0.34 0 0 Z M5 3 C5 3.66 5 4.32 5 5 C5.66 5 6.32 5 7 5 C7 4.34 7 3.68 7 3 C6.34 3 5.68 3 5 3 Z " fill="#C72228" transform="translate(70,39)"/>
<path d="M0 0 C0.66 0.33 1.32 0.66 2 1 C2 1.99 2 2.98 2 4 C2.66 4.33 3.32 4.66 4 5 C2.8125 6.5 2.8125 6.5 1 8 C-1.6875 8.1875 -1.6875 8.1875 -4 8 C-4.33 6.35 -4.66 4.7 -5 3 C-4.360625 2.690625 -3.72125 2.38125 -3.0625 2.0625 C-1.06389179 1.1654837 -1.06389179 1.1654837 0 0 Z " fill="#3B3A3A" transform="translate(296,122)"/>
<path d="M0 0 C0 1.98 0 3.96 0 6 C-0.66 6 -1.32 6 -2 6 C-2 4.68 -2 3.36 -2 2 C-2.99 2.33 -3.98 2.66 -5 3 C-5.33 4.65 -5.66 6.3 -6 8 C-5.34 8.33 -4.68 8.66 -4 9 C-5.65 8.67 -7.3 8.34 -9 8 C-9.22223194 5.25913944 -9.34781139 3.56036279 -7.875 1.1875 C-5.22464043 -0.49106106 -3.06753576 -0.20450238 0 0 Z " fill="#2E2D2E" transform="translate(331,120)"/>
<path d="M0 0 C0.33 0 0.66 0 1 0 C1.268125 1.0725 1.53625 2.145 1.8125 3.25 C2.86227827 6.56508928 3.74612328 8.43877646 6 11 C4.68 11.99 3.36 12.98 2 14 C1.67 13.01 1.34 12.02 1 11 C-0.32 10.34 -1.64 9.68 -3 9 C-2.01 6.03 -1.02 3.06 0 0 Z " fill="#F6E6DF" transform="translate(67,42)"/>
<path d="M0 0 C0.66 0 1.32 0 2 0 C2.66 0.66 3.32 1.32 4 2 C-0.75 6 -0.75 6 -3 6 C-3.66 5.01 -4.32 4.02 -5 3 C-8.56769552 2.26393501 -8.56769552 2.26393501 -12 2 C-12 1.67 -12 1.34 -12 1 C-4.11132438 -1.23512476 -4.11132438 -1.23512476 0 0 Z " fill="#FBF4DA" transform="translate(36,96)"/>
<path d="M0 0 C4.875 0.875 4.875 0.875 6 2 C6.07244053 4.01964199 6.08377188 6.04167124 6.0625 8.0625 C6.05347656 9.16722656 6.04445313 10.27195312 6.03515625 11.41015625 C6.02355469 12.26480469 6.01195312 13.11945313 6 14 C5.34 14 4.68 14 4 14 C3.67 10.7 3.34 7.4 3 4 C1.35 4 -0.3 4 -2 4 C-1.34 2.68 -0.68 1.36 0 0 Z " fill="#101010" transform="translate(331,76)"/>
<path d="M0 0 C2 3.75 2 3.75 2 6 C2.99 6.33 3.98 6.66 5 7 C4.38125 7.268125 3.7625 7.53625 3.125 7.8125 C0.7004767 8.95556848 0.7004767 8.95556848 -1 12 C-1.39013716 13.9896995 -1.73202649 15.99019869 -2 18 C-2.66 17.01 -3.32 16.02 -4 15 C-4.99 15.495 -4.99 15.495 -6 16 C-5.67 15.01 -5.34 14.02 -5 13 C-4.34 13 -3.68 13 -3 13 C-2.87625 12.34 -2.7525 11.68 -2.625 11 C-1.85479462 7.30301417 -0.93049337 3.65994058 0 0 Z " fill="#FCF8E9" transform="translate(95,85)"/>
<path d="M0 0 C1.65 1.65 3.3 3.3 5 5 C4.34 5.66 3.68 6.32 3 7 C2.34 7 1.68 7 1 7 C0.34 7.66 -0.32 8.32 -1 9 C-1.66 8.01 -2.32 7.02 -3 6 C-4.96361864 5.42251197 -4.96361864 5.42251197 -7.125 5.3125 C-8.40375 5.209375 -9.6825 5.10625 -11 5 C-11 4.67 -11 4.34 -11 4 C-7.7 4 -4.4 4 -1 4 C-0.67 2.68 -0.34 1.36 0 0 Z " fill="#FCF5DE" transform="translate(35,46)"/>
<path d="M0 0 C2.5625 0.1875 2.5625 0.1875 4.5625 2.1875 C4.5625 3.1775 4.5625 4.1675 4.5625 5.1875 C1.5925 5.1875 -1.3775 5.1875 -4.4375 5.1875 C-3.20220588 0.24632353 -3.20220588 0.24632353 0 0 Z " fill="#EEEEEE" transform="translate(244.4375,37.8125)"/>
<path d="M0 0 C1.2065625 0.0309375 1.2065625 0.0309375 2.4375 0.0625 C2.1075 2.7025 1.7775 5.3425 1.4375 8.0625 C-2.4375 7.1875 -2.4375 7.1875 -3.5625 6.0625 C-3.6875 3.5625 -3.6875 3.5625 -3.5625 1.0625 C-2.5625 0.0625 -2.5625 0.0625 0 0 Z " fill="#767475" transform="translate(287.5625,121.9375)"/>
<path d="M0 0 C0.33 0 0.66 0 1 0 C1.66 2.31 2.32 4.62 3 7 C4.32 7 5.64 7 7 7 C7.66 6.34 8.32 5.68 9 5 C9.33 5.99 9.66 6.98 10 8 C6.54754176 10.30163882 5.05261287 10.34490322 1 10 C-1 8 -1 8 -1.1875 4.4375 C-1 1 -1 1 0 0 Z " fill="#111111" transform="translate(286,80)"/>
<path d="M0 0 C3.3 0 6.6 0 10 0 C9.34 1.65 8.68 3.3 8 5 C6.02 5 4.04 5 2 5 C1.34 3.35 0.68 1.7 0 0 Z " fill="#FDC31D" transform="translate(54,29)"/>
<path d="M0 0 C1.99954746 -0.04254356 4.00041636 -0.04080783 6 0 C7 1 7 1 7.1875 3.9375 C7 7 7 7 5 9 C5 6.69 5 4.38 5 2 C1.67098753 4.21934164 1.24976756 5.34683329 0 9 C-1.15941038 5.52176885 -0.70820884 3.54104422 0 0 Z " fill="#454344" transform="translate(201,120)"/>
<path d="M0 0 C0.66 0 1.32 0 2 0 C3.06824882 4.03560666 2.73361326 6.9243708 2 11 C1.96237049 13.33302989 1.95334266 15.66713319 2 18 C1.34 18 0.68 18 0 18 C0 12.06 0 6.12 0 0 Z " fill="#070707" transform="translate(154,77)"/>
<path d="M0 0 C1.93938819 2.90908228 2.96774957 5.40862379 4.125 8.6875 C4.47820312 9.68136719 4.83140625 10.67523438 5.1953125 11.69921875 C5.46085938 12.45847656 5.72640625 13.21773437 6 14 C4.13671875 13.77734375 4.13671875 13.77734375 2 13 C0.76953125 11.00390625 0.76953125 11.00390625 -0.1875 8.5625 C-0.51105469 7.75941406 -0.83460938 6.95632812 -1.16796875 6.12890625 C-1.44253906 5.42636719 -1.71710938 4.72382812 -2 4 C-2.33 3.34 -2.66 2.68 -3 2 C-2.01 2 -1.02 2 0 2 C0 1.34 0 0.68 0 0 Z " fill="#232323" transform="translate(220,73)"/>
<path d="M0 0 C0.99 0.33 1.98 0.66 3 1 C2.67 4.63 2.34 8.26 2 12 C1.01 12 0.02 12 -1 12 C-1.02687279 10.18757948 -1.04633715 8.37504767 -1.0625 6.5625 C-1.07410156 5.55316406 -1.08570313 4.54382813 -1.09765625 3.50390625 C-1 1 -1 1 0 0 Z " fill="#1C1C1C" transform="translate(318,79)"/>
<path d="M0 0 C0.66 0.66 1.32 1.32 2 2 C2.66 1.67 3.32 1.34 4 1 C4.66 1.66 5.32 2.32 6 3 C4.02 4.65 2.04 6.3 0 8 C-0.66 7.01 -1.32 6.02 -2 5 C-2.99 5.495 -2.99 5.495 -4 6 C-4 5.34 -4 4.68 -4 4 C-5.98 4 -7.96 4 -10 4 C-10 3.67 -10 3.34 -10 3 C-8.72125 2.87625 -7.4425 2.7525 -6.125 2.625 C-2.65209064 2.30957601 -2.65209064 2.30957601 0 0 Z " fill="#F9F0EE" transform="translate(69,64)"/>
<path d="M0 0 C0.68707555 2.49064888 1 4.37886292 1 7 C2.32 6.01 3.64 5.02 5 4 C4.649375 4.9075 4.29875 5.815 3.9375 6.75 C3.03531221 9.87758436 2.86618493 11.05208081 4 14 C2.68 12.68 1.36 11.36 0 10 C-0.66 10.99 -1.32 11.98 -2 13 C-1.85915204 11.20793453 -1.71216299 9.41635083 -1.5625 7.625 C-1.48128906 6.62726563 -1.40007812 5.62953125 -1.31640625 4.6015625 C-1 2 -1 2 0 0 Z " fill="#353434" transform="translate(247,116)"/>
<path d="M0 0 C3.11257569 0 5.10765685 0.17361624 8 1 C6.7934375 1.4640625 6.7934375 1.4640625 5.5625 1.9375 C2.83888394 3.70576915 2.83888394 3.70576915 2.4453125 6.203125 C2.20962327 8.47431216 2.05263436 10.71758269 2 13 C1.34 13 0.68 13 0 13 C0 8.71 0 4.42 0 0 Z " fill="#040404" transform="translate(357,77)"/>
<path d="M0 0 C0.66 0 1.32 0 2 0 C1.85851011 1.6045556 1.71164314 3.20863767 1.5625 4.8125 C1.48128906 5.70582031 1.40007812 6.59914063 1.31640625 7.51953125 C1 10 1 10 0 13 C-0.66 13 -1.32 13 -2 13 C-2.16682272 8.07872966 -2.24828052 4.49656104 0 0 Z " fill="#1D1B1C" transform="translate(304,116)"/>
<path d="M0 0 C0.99 0 1.98 0 3 0 C3.36923077 6.52307692 3.36923077 6.52307692 1.5 8.9375 C1.005 9.288125 0.51 9.63875 0 10 C0 8.68 0 7.36 0 6 C-1.32 6 -2.64 6 -4 6 C-4 5.34 -4 4.68 -4 4 C-2.68 4 -1.36 4 0 4 C0 2.68 0 1.36 0 0 Z " fill="#393839" transform="translate(369,116)"/>
<path d="M0 0 C0.99 0 1.98 0 3 0 C3.33 1.98 3.66 3.96 4 6 C3.01 6.33 2.02 6.66 1 7 C0.67 6.67 0.34 6.34 0 6 C-1.68183948 5.76712992 -3.3712416 5.58735834 -5.0625 5.4375 C-5.98160156 5.35371094 -6.90070312 5.26992188 -7.84765625 5.18359375 C-8.91306641 5.09271484 -8.91306641 5.09271484 -10 5 C-10 4.67 -10 4.34 -10 4 C-7.03 4 -4.06 4 -1 4 C-0.67 2.68 -0.34 1.36 0 0 Z " fill="#FACD43" transform="translate(66,22)"/>
<path d="M0 0 C1.98 0 3.96 0 6 0 C6.84454356 3.37817425 7.10844919 5.67465243 6 9 C5.34 9 4.68 9 4 9 C4.33 6.69 4.66 4.38 5 2 C4.01 2.33 3.02 2.66 2 3 C0.77479736 6.00847418 0.77479736 6.00847418 0 9 C-0.33 9 -0.66 9 -1 9 C-0.67 6.03 -0.34 3.06 0 0 Z " fill="#3D3B3C" transform="translate(144,120)"/>
<path d="M0 0 C1.98 0 3.96 0 6 0 C5 3 5 3 3 4 C2.27840576 5.64363134 1.60648579 7.31050386 1 9 C0.34 9 -0.32 9 -1 9 C-0.67 6.03 -0.34 3.06 0 0 Z " fill="#363435" transform="translate(346,120)"/>
<path d="M0 0 C0.391875 0.639375 0.78375 1.27875 1.1875 1.9375 C3.38472296 4.43778819 4.75791433 4.64950425 8 5 C5.64561267 6.42944945 4.51967567 7.08661261 1.75 6.625 C1.1725 6.41875 0.595 6.2125 0 6 C-0.33 7.32 -0.66 8.64 -1 10 C-1 8.68 -1 7.36 -1 6 C-1.99 5.67 -2.98 5.34 -4 5 C-2.68 3.35 -1.36 1.7 0 0 Z " fill="#FCF6E5" transform="translate(52,117)"/>
<path d="M0 0 C1.98 0 3.96 0 6 0 C6.33 1.32 6.66 2.64 7 4 C5.35 3.01 3.7 2.02 2 1 C1.67 2.65 1.34 4.3 1 6 C1.99 6.33 2.98 6.66 4 7 C2.68 7 1.36 7 0 7 C0 8.65 0 10.3 0 12 C-0.66 11.67 -1.32 11.34 -2 11 C-1.34 7.37 -0.68 3.74 0 0 Z " fill="#363635" transform="translate(225,117)"/>
<path d="M0 0 C3.3 0 6.6 0 10 0 C8.68 0.33 7.36 0.66 6 1 C6.33 1.99 6.66 2.98 7 4 C4.625 4.625 4.625 4.625 2 5 C1.34 4.34 0.68 3.68 0 3 C0 2.01 0 1.02 0 0 Z " fill="#E5E5E5" transform="translate(304,84)"/>
<path d="M0 0 C5.44736842 0.48421053 5.44736842 0.48421053 7.875 2.75 C9.18152386 5.36304771 9.24038873 7.11533524 9 10 C8.67 8.68 8.34 7.36 8 6 C7.01 6 6.02 6 5 6 C5 5.34 5 4.68 5 4 C4.01 4 3.02 4 2 4 C2 3.34 2 2.68 2 2 C1.34 2 0.68 2 0 2 C0 1.34 0 0.68 0 0 Z " fill="#FAC935" transform="translate(61,82)"/>
<path d="M0 0 C1.66611905 -0.042721 3.33382885 -0.04063832 5 0 C6 1 6 1 6.09765625 3.72265625 C6.08605469 4.82480469 6.07445312 5.92695312 6.0625 7.0625 C6.05347656 8.16722656 6.04445313 9.27195312 6.03515625 10.41015625 C6.02355469 11.26480469 6.01195312 12.11945313 6 13 C5.34 13 4.68 13 4 13 C3.96261719 12.31292969 3.92523438 11.62585938 3.88671875 10.91796875 C3.82097656 10.01691406 3.75523437 9.11585937 3.6875 8.1875 C3.62949219 7.29417969 3.57148438 6.40085937 3.51171875 5.48046875 C2.93686419 2.69396 2.1793144 1.75864246 0 0 Z " fill="#030303" transform="translate(260,77)"/>
<path d="M0 0 C0.33 0.99 0.66 1.98 1 3 C2.32 3 3.64 3 5 3 C5.103125 3.598125 5.20625 4.19625 5.3125 4.8125 C6.08876455 7.28243264 7.07088921 8.32251235 9 10 C8.01 10.495 8.01 10.495 7 11 C1.21538462 6.81538462 1.21538462 6.81538462 0.125 2.6875 C0.08375 1.800625 0.0425 0.91375 0 0 Z " fill="#F8C935" transform="translate(80,33)"/>
<path d="M0 0 C0.66 0 1.32 0 2 0 C1.67 2.31 1.34 4.62 1 7 C1.99 7.33 2.98 7.66 4 8 C2.35 7.67 0.7 7.34 -1 7 C-1 6.34 -1 5.68 -1 5 C-2.32 5 -3.64 5 -5 5 C-5 4.01 -5 3.02 -5 2 C-3.35 2 -1.7 2 0 2 C0 1.34 0 0.68 0 0 Z " fill="#E5E4E5" transform="translate(269,122)"/>
<path d="M0 0 C0.99 0.33 1.98 0.66 3 1 C1.515 2.485 1.515 2.485 0 4 C0.66 4 1.32 4 2 4 C2 4.66 2 5.32 2 6 C1.01 6 0.02 6 -1 6 C-1 7.98 -1 9.96 -1 12 C-1.99 12.495 -1.99 12.495 -3 13 C-3.4726477 4.80743982 -3.4726477 4.80743982 -1.5 1.4375 C-0.7575 0.7259375 -0.7575 0.7259375 0 0 Z " fill="#484647" transform="translate(163,116)"/>
<path d="M0 0 C0.66 0 1.32 0 2 0 C2.6875 3.3125 2.6875 3.3125 3 7 C1.5625 8.9375 1.5625 8.9375 0 10 C-0.99 9.67 -1.98 9.34 -3 9 C-2.67 6.36 -2.34 3.72 -2 1 C-1.67 2.32 -1.34 3.64 -1 5 C-0.34 5 0.32 5 1 5 C0.67 3.35 0.34 1.7 0 0 Z " fill="#FBF6E1" transform="translate(53,20)"/>
<path d="M0 0 C0.33 0 0.66 0 1 0 C1.33 1.65 1.66 3.3 2 5 C5.3 5.33 8.6 5.66 12 6 C12 6.33 12 6.66 12 7 C9.85473901 7.19393875 7.70876323 7.37998676 5.5625 7.5625 C3.77005859 7.71912109 3.77005859 7.71912109 1.94140625 7.87890625 C0.97074219 7.91886719 0.00007813 7.95882812 -1 8 C-2 7 -2 7 -2.1875 4.5625 C-2 2 -2 2 0 0 Z " fill="#FDD154" transform="translate(52,103)"/>
<path d="M0 0 C0.33 0 0.66 0 1 0 C1.66 2.97 2.32 5.94 3 9 C-1.96570849 10.24142712 -4.15547062 9.37261666 -9 8 C-9 7.67 -9 7.34 -9 7 C-2.25 5.875 -2.25 5.875 0 7 C0 4.69 0 2.38 0 0 Z " fill="#F8EBDC" transform="translate(68,74)"/>
<path d="M0 0 C0.556875 0.185625 1.11375 0.37125 1.6875 0.5625 C4.399133 1.07551165 6.34371039 0.6640724 9 0 C9.33 1.32 9.66 2.64 10 4 C6.7 4 3.4 4 0 4 C0 2.68 0 1.36 0 0 Z " fill="#2B2B2B" transform="translate(317,76)"/>
<path d="M0 0 C0.99 0.66 1.98 1.32 3 2 C3 2.66 3 3.32 3 4 C1.68 3.67 0.36 3.34 -1 3 C-1 3.66 -1 4.32 -1 5 C0.98 5 2.96 5 5 5 C4.34 6.32 3.68 7.64 3 9 C1.35 8.01 -0.3 7.02 -2 6 C-1.125 1.125 -1.125 1.125 0 0 Z " fill="#C92C33" transform="translate(82,63)"/>
<path d="M0 0 C1.37562854 1.28965176 2.70766393 2.62689293 4 4 C4 4.66 4 5.32 4 6 C2.68 6 1.36 6 0 6 C0 6.66 0 7.32 0 8 C-0.66 8 -1.32 8 -2 8 C-2.125 5.125 -2.125 5.125 -2 2 C-1.34 1.34 -0.68 0.68 0 0 Z " fill="#EEEDED" transform="translate(237,122)"/>
<path d="M0 0 C0.99 0.33 1.98 0.66 3 1 C3 3.97 3 6.94 3 10 C2.34 10 1.68 10 1 10 C1 8.68 1 7.36 1 6 C-0.32 5.34 -1.64 4.68 -3 4 C-3 3.34 -3 2.68 -3 2 C-2.01 2 -1.02 2 0 2 C0 1.34 0 0.68 0 0 Z " fill="#DFDDDE" transform="translate(243,120)"/>
<path d="M0 0 C2.09749995 2.35968744 2.96905704 3.54616994 3.1875 6.75 C3.125625 7.4925 3.06375 8.235 3 9 C2.01 8.67 1.02 8.34 0 8 C-0.33 9.32 -0.66 10.64 -1 12 C-1.66 11.67 -2.32 11.34 -3 11 C-2.690625 10.29875 -2.38125 9.5975 -2.0625 8.875 C-0.96697322 5.91063343 -0.43577008 3.12301892 0 0 Z " fill="#FCF5DF" transform="translate(100,92)"/>
<path d="M0 0 C1.65 0 3.3 0 5 0 C4.67 1.65 4.34 3.3 4 5 C2.35 4.67 0.7 4.34 -1 4 C-0.67 2.68 -0.34 1.36 0 0 Z " fill="#E3E3E3" transform="translate(142,84)"/>
<path d="M0 0 C1.875 1.5 1.875 1.5 3 3 C2.01 3.99 1.02 4.98 0 6 C-0.33 5.01 -0.66 4.02 -1 3 C-3.31 3 -5.62 3 -8 3 C-8 2.34 -8 1.68 -8 1 C-5.20129973 -0.39935013 -3.09501208 -0.25265405 0 0 Z " fill="#2E2E2E" transform="translate(247,76)"/>
<path d="M0 0 C2.3125 0.1875 2.3125 0.1875 4 1 C4.33 2.65 4.66 4.3 5 6 C4.278125 5.649375 3.55625 5.29875 2.8125 4.9375 C-0.3122705 3.89590983 -1.88161996 4.10903428 -5 5 C-2.75 2.4375 -2.75 2.4375 0 0 Z " fill="#CA2B32" transform="translate(75,66)"/>
<path d="M0 0 C0.66 0 1.32 0 2 0 C2.33 2.64 2.66 5.28 3 8 C1.68 7.67 0.36 7.34 -1 7 C-1.625 4.625 -1.625 4.625 -2 2 C-1.34 1.34 -0.68 0.68 0 0 Z " fill="#EDECED" transform="translate(204,122)"/>
<path d="M0 0 C1.65 0 3.3 0 5 0 C4.67 1.32 4.34 2.64 4 4 C2.35 4.33 0.7 4.66 -1 5 C-0.67 3.35 -0.34 1.7 0 0 Z " fill="#E1E1E1" transform="translate(274,84)"/>
<path d="M0 0 C0.99 0 1.98 0 3 0 C3 1.32 3 2.64 3 4 C3.66 4 4.32 4 5 4 C4.67 4.99 4.34 5.98 4 7 C2.68 6.67 1.36 6.34 0 6 C0 4.02 0 2.04 0 0 Z " fill="#3C3B3C" transform="translate(362,123)"/>
<path d="M0 0 C1.65 0 3.3 0 5 0 C5 0.66 5 1.32 5 2 C4.01 2.66 3.02 3.32 2 4 C1.26656572 7.06556598 1.26656572 7.06556598 1 10 C0.34 10 -0.32 10 -1 10 C-0.67 6.7 -0.34 3.4 0 0 Z " fill="#565555" transform="translate(128,120)"/>
<path d="M0 0 C0.99 0 1.98 0 3 0 C2.34 2.97 1.68 5.94 1 9 C0.34 9 -0.32 9 -1 9 C-1.09765625 2.84765625 -1.09765625 2.84765625 -1 1 C-0.67 0.67 -0.34 0.34 0 0 Z " fill="#403E3F" transform="translate(308,120)"/>
<path d="M0 0 C7.625 0.875 7.625 0.875 11 2 C7.5647952 4.29013653 6.014669 4.17842973 2 4 C1.34 2.68 0.68 1.36 0 0 Z " fill="#1E1E1E" transform="translate(342,87)"/>
<path d="M0 0 C1.2065625 0.0309375 1.2065625 0.0309375 2.4375 0.0625 C2.1075 1.3825 1.7775 2.7025 1.4375 4.0625 C0.1175 4.3925 -1.2025 4.7225 -2.5625 5.0625 C-3.125 3.125 -3.125 3.125 -3.5625 1.0625 C-2.5625 0.0625 -2.5625 0.0625 0 0 Z " fill="#EAEAEA" transform="translate(193.5625,83.9375)"/>
<path d="M0 0 C1.65 0.33 3.3 0.66 5 1 C5.33 1.99 5.66 2.98 6 4 C3.36 4 0.72 4 -2 4 C-1.34 2.68 -0.68 1.36 0 0 Z " fill="#DEDEDE" transform="translate(345,78)"/>
<path d="M0 0 C5.625 -0.25 5.625 -0.25 9 2 C8.67 2.99 8.34 3.98 8 5 C7.1646875 4.505 7.1646875 4.505 6.3125 4 C3.69715478 2.8690399 1.8193354 2.84337026 -1 3 C-0.67 2.01 -0.34 1.02 0 0 Z " fill="#141414" transform="translate(127,71)"/>
<path d="M0 0 C0.66 0.33 1.32 0.66 2 1 C2 3.97 2 6.94 2 10 C0.68 10 -0.64 10 -2 10 C-1.34 6.7 -0.68 3.4 0 0 Z " fill="#FBC21B" transform="translate(50,41)"/>
<path d="M0 0 C0.99 0 1.98 0 3 0 C2.67 1.65 2.34 3.3 2 5 C0.68 5.33 -0.64 5.66 -2 6 C-1.125 1.125 -1.125 1.125 0 0 Z " fill="#EBEAEB" transform="translate(136,122)"/>
<path d="M0 0 C0.99 0.33 1.98 0.66 3 1 C3 3.97 3 6.94 3 10 C1.68 9.67 0.36 9.34 -1 9 C-0.67 6.03 -0.34 3.06 0 0 Z " fill="#D9D8D9" transform="translate(141,120)"/>
<path d="M0 0 C4 4.75 4 4.75 4 7 C2 8.625 2 8.625 0 10 C-0.66 9.67 -1.32 9.34 -2 9 C-1.34 6.03 -0.68 3.06 0 0 Z " fill="#FCF7E8" transform="translate(35,85)"/>
<path d="M0 0 C1.65 0 3.3 0 5 0 C4.67 1.65 4.34 3.3 4 5 C2.68 5 1.36 5 0 5 C0 3.35 0 1.7 0 0 Z " fill="#E7E7E7" transform="translate(242,84)"/>
<path d="M0 0 C0.66 0.66 1.32 1.32 2 2 C1.34 3.32 0.68 4.64 0 6 C-0.33 5.01 -0.66 4.02 -1 3 C-3.31 3 -5.62 3 -8 3 C-8 2.34 -8 1.68 -8 1 C-5.23749964 -0.38125018 -3.05268901 -0.19079306 0 0 Z " fill="#303030" transform="translate(278,76)"/>
<path d="M0 0 C1.32 0.33 2.64 0.66 4 1 C3.34 1.66 2.68 2.32 2 3 C1.83322718 6.58343976 1.83322718 6.58343976 2 10 C1.01 10 0.02 10 -1 10 C-1 6.58900832 -0.50854594 3.36911686 0 0 Z " fill="#F9F4EA" transform="translate(68,30)"/>
<path d="M0 0 C-1.9375 2.125 -1.9375 2.125 -5 4 C-8.13678022 3.75870921 -11.0127167 2.96321989 -14 2 C-14 1.67 -14 1.34 -14 1 C-8.83955235 -0.512545 -5.34001821 -1.33500455 0 0 Z " fill="#C41922" transform="translate(89,94)"/>
<path d="M0 0 C2.33944736 0.28730055 4.6739143 0.61936779 7 1 C6.67 2.32 6.34 3.64 6 5 C6 4.01 6 3.02 6 2 C4.35 2 2.7 2 1 2 C0.67 3.32 0.34 4.64 0 6 C-0.66 5.67 -1.32 5.34 -2 5 C-1.125 1.125 -1.125 1.125 0 0 Z " fill="#3B3B3B" transform="translate(241,82)"/>
<path d="M0 0 C0.99 0.33 1.98 0.66 3 1 C3 3.31 3 5.62 3 8 C2.01 8 1.02 8 0 8 C0 5.36 0 2.72 0 0 Z " fill="#E3E3E3" transform="translate(338,79)"/>
<path d="M0 0 C0.99 0 1.98 0 3 0 C3 1.65 3 3.3 3 5 C1.68 5.33 0.36 5.66 -1 6 C-1.042721 4.33388095 -1.04063832 2.66617115 -1 1 C-0.67 0.67 -0.34 0.34 0 0 Z " fill="#F0EEEF" transform="translate(213,122)"/>
<path d="M0 0 C0.99 0.33 1.98 0.66 3 1 C2.67 3.31 2.34 5.62 2 8 C1.01 8 0.02 8 -1 8 C-0.67 5.36 -0.34 2.72 0 0 Z " fill="#2E2C2C" transform="translate(271,121)"/>
<path d="M0 0 C0.99 0 1.98 0 3 0 C3 1.65 3 3.3 3 5 C1.68 5.33 0.36 5.66 -1 6 C-1.042721 4.33388095 -1.04063832 2.66617115 -1 1 C-0.67 0.67 -0.34 0.34 0 0 Z " fill="#FCFAFB" transform="translate(168,122)"/>
<path d="M0 0 C1.9375 0.3125 1.9375 0.3125 4 1 C4.33 1.99 4.66 2.98 5 4 C2.69 4 0.38 4 -2 4 C-1.34 2.68 -0.68 1.36 0 0 Z " fill="#F1F1F1" transform="translate(306,78)"/>
<path d="M0 0 C0.66 0.33 1.32 0.66 2 1 C1.67 1.99 1.34 2.98 1 4 C1.27571139 6.00875442 1.60235737 8.01178687 2 10 C1.01 10 0.02 10 -1 10 C-2.25 3.375 -2.25 3.375 0 0 Z M-1 4 C0 7 0 7 0 7 Z " fill="#FBCC3C" transform="translate(37,38)"/>
<path d="M0 0 C2.125 0.9375 2.125 0.9375 4 2 C4 2.66 4 3.32 4 4 C2.68 4 1.36 4 0 4 C-0.33 4.66 -0.66 5.32 -1 6 C-1.33 4.35 -1.66 2.7 -2 1 C-1.34 0.67 -0.68 0.34 0 0 Z " fill="#ECECEC" transform="translate(152,124)"/>
<path d="M0 0 C0.99 0 1.98 0 3 0 C3 1.65 3 3.3 3 5 C1.35 5.66 -0.3 6.32 -2 7 C-1.125 1.125 -1.125 1.125 0 0 Z " fill="#E5E3E4" transform="translate(146,122)"/>
<path d="M0 0 C0 0.66 0 1.32 0 2 C0.66 2 1.32 2 2 2 C2 3.65 2 5.3 2 7 C1.67 6.01 1.34 5.02 1 4 C-1.09719872 2.97718482 -1.09719872 2.97718482 -3.5625 2.3125 C-4.38878906 2.06113281 -5.21507812 1.80976562 -6.06640625 1.55078125 C-6.70449219 1.36902344 -7.34257813 1.18726562 -8 1 C-8 0.67 -8 0.34 -8 0 C-2.25 -1.125 -2.25 -1.125 0 0 Z " fill="#F6ECD0" transform="translate(67,98)"/>
<path d="M0 0 C0.66 0 1.32 0 2 0 C2 0.99 2 1.98 2 3 C3.65 3.33 5.3 3.66 7 4 C7 4.66 7 5.32 7 6 C4.625 6.125 4.625 6.125 2 6 C1.34 5.34 0.68 4.68 0 4 C0 2.68 0 1.36 0 0 Z " fill="#141414" transform="translate(187,85)"/>
<path d="M0 0 C0.91007812 0.00902344 1.82015625 0.01804687 2.7578125 0.02734375 C3.45648438 0.03894531 4.15515625 0.05054687 4.875 0.0625 C4.875 0.3925 4.875 0.7225 4.875 1.0625 C3.8025 1.18625 2.73 1.31 1.625 1.4375 C-1.50363615 1.95893936 -3.45980424 2.46338254 -6.125 4.0625 C-6.455 3.0725 -6.785 2.0825 -7.125 1.0625 C-4.60024538 -0.19987731 -2.81299534 -0.03606404 0 0 Z " fill="#FBEDBE" transform="translate(43.125,81.9375)"/>
<path d="M0 0 C0.66 0 1.32 0 2 0 C2.99 1.98 3.98 3.96 5 6 C4.34 6.66 3.68 7.32 3 8 C1.5 6.8125 1.5 6.8125 0 5 C-0.1875 2.3125 -0.1875 2.3125 0 0 Z " fill="#0F0F0F" transform="translate(121,82)"/>
<path d="M0 0 C1.32 0.66 2.64 1.32 4 2 C3.34 3.32 2.68 4.64 2 6 C0.35 5.01 -1.3 4.02 -3 3 C-2.01 2.01 -1.02 1.02 0 0 Z " fill="#FCF7E6" transform="translate(52,63)"/>
<path d="M0 0 C0.33 0.66 0.66 1.32 1 2 C2.32 2 3.64 2 5 2 C4.67 2.99 4.34 3.98 4 5 C1.69 4.67 -0.62 4.34 -3 4 C-2.34 3.67 -1.68 3.34 -1 3 C-0.67 2.01 -0.34 1.02 0 0 Z " fill="#F9CB39" transform="translate(72,26)"/>
<path d="M0 0 C-0.33 1.32 -0.66 2.64 -1 4 C-1 3.01 -1 2.02 -1 1 C-1.66 1 -2.32 1 -3 1 C-3 1.66 -3 2.32 -3 3 C-3.99 3 -4.98 3 -6 3 C-6.33 2.01 -6.66 1.02 -7 0 C-4.3333581 -1.33332095 -2.83319697 -0.67102033 0 0 Z " fill="#5F5E5E" transform="translate(381,121)"/>
<path d="M0 0 C2.97 0 5.94 0 9 0 C9 0.99 9 1.98 9 3 C2.25 3.125 2.25 3.125 0 2 C0 1.34 0 0.68 0 0 Z " fill="#1B1B1B" transform="translate(285,93)"/>
<path d="M0 0 C0.33 0.66 0.66 1.32 1 2 C-0.175625 2.1546875 -0.175625 2.1546875 -1.375 2.3125 C-4.33045181 2.77595022 -4.33045181 2.77595022 -6 6 C-6 5.01 -6 4.02 -6 3 C-6.66 2.67 -7.32 2.34 -8 2 C-4.77208445 -0.1519437 -3.71599191 -0.20086443 0 0 Z " fill="#2A2A2A" transform="translate(195,82)"/>
<path d="M0 0 C2 3.75 2 3.75 2 6 C2.99 6.33 3.98 6.66 5 7 C3.35 7.66 1.7 8.32 0 9 C-1.15941038 5.52176885 -0.70820884 3.54104422 0 0 Z " fill="#F6DFCD" transform="translate(95,85)"/>
<path d="M0 0 C0.66 0.99 1.32 1.98 2 3 C4.05925139 3.72382467 4.05925139 3.72382467 6 4 C6 4.66 6 5.32 6 6 C4.02 6 2.04 6 0 6 C-1.125 2.25 -1.125 2.25 0 0 Z " fill="#1A1A1A" transform="translate(240,85)"/>
<path d="M0 0 C2.0625 1.75 2.0625 1.75 4 4 C3.75 6.25 3.75 6.25 3 8 C3 7.01 3 6.02 3 5 C1.02 5 -0.96 5 -3 5 C-2.01 4.67 -1.02 4.34 0 4 C0 2.68 0 1.36 0 0 Z " fill="#CB2C37" transform="translate(78,40)"/>
<path d="M0 0 C0.66 0 1.32 0 2 0 C2.66 2.31 3.32 4.62 4 7 C2.68 6.67 1.36 6.34 0 6 C0 4.02 0 2.04 0 0 Z " fill="#292929" transform="translate(281,123)"/>
<path d="M0 0 C0.33 0 0.66 0 1 0 C1 2.31 1 4.62 1 7 C1.66 7.33 2.32 7.66 3 8 C2.01 8 1.02 8 0 8 C-0.66 7.34 -1.32 6.68 -2 6 C-1.44444444 1.44444444 -1.44444444 1.44444444 0 0 Z " fill="#CFCFCF" transform="translate(275,122)"/>
<path d="M0 0 C0.66 0 1.32 0 2 0 C2 2.64 2 5.28 2 8 C1.01 8 0.02 8 -1 8 C-0.67 5.36 -0.34 2.72 0 0 Z " fill="#363535" transform="translate(339,122)"/>
<path d="M0 0 C2.31 0 4.62 0 7 0 C7 0.66 7 1.32 7 2 C6.21625 2.12375 5.4325 2.2475 4.625 2.375 C1.85942178 2.79117993 1.85942178 2.79117993 0 5 C0 3.35 0 1.7 0 0 Z " fill="#1F1E1F" transform="translate(263,117)"/>
<path d="M0 0 C0.66 0.99 1.32 1.98 2 3 C4.05003955 4.19232613 4.05003955 4.19232613 6 5 C3.625 5.625 3.625 5.625 1 6 C0.34 5.34 -0.32 4.68 -1 4 C-0.625 1.875 -0.625 1.875 0 0 Z " fill="#0A0A0A" transform="translate(271,85)"/>
<path d="M0 0 C0.33 0 0.66 0 1 0 C1.36923077 6.52307692 1.36923077 6.52307692 -0.5 8.9375 C-0.995 9.288125 -1.49 9.63875 -2 10 C-1.54177532 6.53058454 -1.10868317 3.32604951 0 0 Z " fill="#FBC931" transform="translate(53,70)"/>
<path d="M0 0 C0.33 0.66 0.66 1.32 1 2 C-0.32 3.32 -1.64 4.64 -3 6 C-3.33 5.34 -3.66 4.68 -4 4 C-5.98 4 -7.96 4 -10 4 C-10 3.67 -10 3.34 -10 3 C-8.72125 2.87625 -7.4425 2.7525 -6.125 2.625 C-2.65209064 2.30957601 -2.65209064 2.30957601 0 0 Z " fill="#FBF1CF" transform="translate(69,64)"/>
<path d="M0 0 C0.5625 1.9375 0.5625 1.9375 1 4 C0 5 0 5 -3.0625 5.0625 C-4.5165625 5.0315625 -4.5165625 5.0315625 -6 5 C-6 4.34 -6 3.68 -6 3 C-5.195625 2.87625 -4.39125 2.7525 -3.5625 2.625 C-2.716875 2.41875 -1.87125 2.2125 -1 2 C-0.67 1.34 -0.34 0.68 0 0 Z " fill="#222122" transform="translate(328,128)"/>
<path d="M0 0 C0.33 0.66 0.66 1.32 1 2 C1.99 2 2.98 2 4 2 C4 1.34 4 0.68 4 0 C4.66 0 5.32 0 6 0 C5.67 1.32 5.34 2.64 5 4 C3.35 4 1.7 4 0 4 C0 2.68 0 1.36 0 0 Z " fill="#282627" transform="translate(374,122)"/>
<path d="M0 0 C0.66 0.33 1.32 0.66 2 1 C1.6875 2.9375 1.6875 2.9375 1 5 C0.01 5.33 -0.98 5.66 -2 6 C-1.125 1.125 -1.125 1.125 0 0 Z " fill="#CECECE" transform="translate(296,122)"/>
<path d="M0 0 C0.66 0 1.32 0 2 0 C2 1.65 2 3.3 2 5 C1.01 5.495 1.01 5.495 0 6 C-0.66 6.99 -1.32 7.98 -2 9 C-1.125 2.25 -1.125 2.25 0 0 Z " fill="#454344" transform="translate(304,116)"/>
<path d="M0 0 C1.32 1.65 2.64 3.3 4 5 C2.35 5.33 0.7 5.66 -1 6 C-1.33 4.35 -1.66 2.7 -2 1 C-1.34 0.67 -0.68 0.34 0 0 Z " fill="#FBF9EE" transform="translate(51,80)"/>
<path d="M0 0 C0 0.66 0 1.32 0 2 C1.65 2 3.3 2 5 2 C5 2.33 5 2.66 5 3 C1.7 3 -1.6 3 -5 3 C-5 2.34 -5 1.68 -5 1 C-2 0 -2 0 0 0 Z " fill="#CA3339" transform="translate(77,80)"/>
<path d="M0 0 C1.66611905 -0.042721 3.33382885 -0.04063832 5 0 C6 1 6 1 6.09765625 2.84765625 C6.06510417 4.8984375 6.03255208 6.94921875 6 9 C5.67 9 5.34 9 5 9 C4.87625 7.329375 4.87625 7.329375 4.75 5.625 C4.42126213 1.94246056 4.42126213 1.94246056 1.9375 0.5625 C1.298125 0.376875 0.65875 0.19125 0 0 Z " fill="#FBC315" transform="translate(28,53)"/>
</svg>
